<mxfile host="app.diagrams.net" agent="Mozilla/5.0 (Windows NT 10.0; Win64; x64) AppleWebKit/537.36 (KHTML, like Gecko) Chrome/127.0.0.0 Safari/537.36 Edg/127.0.0.0" version="24.7.7">
  <diagram name="Page-1" id="YZKFJZak4DazRZNwG4JP">
    <mxGraphModel dx="746" dy="457" grid="1" gridSize="10" guides="1" tooltips="1" connect="1" arrows="1" fold="1" page="1" pageScale="1" pageWidth="850" pageHeight="1100" math="0" shadow="0">
      <root>
        <mxCell id="0" />
        <mxCell id="1" parent="0" />
        <mxCell id="yBGPnmWxFxPPeFnYxGfm-1" value="&#xa;&lt;strong style=&quot;box-sizing: border-box; font-weight: 600; color: rgb(60, 60, 60); font-family: Poppins, sans-serif; font-size: 15px; font-style: normal; font-variant-ligatures: normal; font-variant-caps: normal; letter-spacing: normal; orphans: 2; text-align: left; text-indent: 0px; text-transform: none; widows: 2; word-spacing: 0px; -webkit-text-stroke-width: 0px; white-space: normal; background-color: rgb(247, 247, 247); text-decoration-thickness: initial; text-decoration-style: initial; text-decoration-color: initial;&quot;&gt;Batch Execution&lt;/strong&gt;&#xa;&#xa;" style="ellipse;whiteSpace=wrap;html=1;fillColor=#ffe6cc;strokeColor=#d79b00;" vertex="1" parent="1">
          <mxGeometry x="100" y="140" width="120" height="80" as="geometry" />
        </mxCell>
        <mxCell id="yBGPnmWxFxPPeFnYxGfm-2" value="&#xa;&lt;strong style=&quot;box-sizing: border-box; font-weight: 600; color: rgb(60, 60, 60); font-family: Poppins, sans-serif; font-size: 15px; font-style: normal; font-variant-ligatures: normal; font-variant-caps: normal; letter-spacing: normal; orphans: 2; text-align: left; text-indent: 0px; text-transform: none; widows: 2; word-spacing: 0px; -webkit-text-stroke-width: 0px; white-space: normal; background-color: rgb(247, 247, 247); text-decoration-thickness: initial; text-decoration-style: initial; text-decoration-color: initial;&quot;&gt;Self Healing&lt;/strong&gt;&#xa;&#xa;" style="ellipse;whiteSpace=wrap;html=1;fillColor=#ffe6cc;strokeColor=#d79b00;" vertex="1" parent="1">
          <mxGeometry x="100" y="260" width="120" height="80" as="geometry" />
        </mxCell>
        <mxCell id="yBGPnmWxFxPPeFnYxGfm-3" value="&#xa;&lt;strong style=&quot;box-sizing: border-box; font-weight: 600; color: rgb(60, 60, 60); font-family: Poppins, sans-serif; font-size: 15px; font-style: normal; font-variant-ligatures: normal; font-variant-caps: normal; letter-spacing: normal; orphans: 2; text-align: left; text-indent: 0px; text-transform: none; widows: 2; word-spacing: 0px; -webkit-text-stroke-width: 0px; white-space: normal; background-color: rgb(247, 247, 247); text-decoration-thickness: initial; text-decoration-style: initial; text-decoration-color: initial;&quot;&gt;Configuration Management&lt;/strong&gt;&#xa;&#xa;" style="ellipse;whiteSpace=wrap;html=1;fillColor=#ffe6cc;strokeColor=#d79b00;" vertex="1" parent="1">
          <mxGeometry x="230" y="350" width="120" height="80" as="geometry" />
        </mxCell>
        <mxCell id="yBGPnmWxFxPPeFnYxGfm-4" value="&#xa;&lt;strong style=&quot;box-sizing: border-box; font-weight: 600; color: rgb(60, 60, 60); font-family: Poppins, sans-serif; font-size: 15px; font-style: normal; font-variant-ligatures: normal; font-variant-caps: normal; letter-spacing: normal; orphans: 2; text-align: left; text-indent: 0px; text-transform: none; widows: 2; word-spacing: 0px; -webkit-text-stroke-width: 0px; white-space: normal; background-color: rgb(247, 247, 247); text-decoration-thickness: initial; text-decoration-style: initial; text-decoration-color: initial;&quot;&gt;Storage Orchestration&lt;/strong&gt;&#xa;&#xa;" style="ellipse;whiteSpace=wrap;html=1;fillColor=#ffe6cc;strokeColor=#d79b00;" vertex="1" parent="1">
          <mxGeometry x="410" y="350" width="120" height="80" as="geometry" />
        </mxCell>
        <mxCell id="yBGPnmWxFxPPeFnYxGfm-5" value="&#xa;&lt;strong style=&quot;box-sizing: border-box; font-weight: 600; color: rgb(60, 60, 60); font-family: Poppins, sans-serif; font-size: 15px; font-style: normal; font-variant-ligatures: normal; font-variant-caps: normal; letter-spacing: normal; orphans: 2; text-align: left; text-indent: 0px; text-transform: none; widows: 2; word-spacing: 0px; -webkit-text-stroke-width: 0px; white-space: normal; background-color: rgb(247, 247, 247); text-decoration-thickness: initial; text-decoration-style: initial; text-decoration-color: initial;&quot;&gt;Load Balancing&lt;/strong&gt;&#xa;&#xa;" style="ellipse;whiteSpace=wrap;html=1;fillColor=#ffe6cc;strokeColor=#d79b00;" vertex="1" parent="1">
          <mxGeometry x="550" y="250" width="120" height="80" as="geometry" />
        </mxCell>
        <mxCell id="yBGPnmWxFxPPeFnYxGfm-6" value="&#xa;&lt;strong style=&quot;box-sizing: border-box; font-weight: 600; color: rgb(60, 60, 60); font-family: Poppins, sans-serif; font-size: 15px; font-style: normal; font-variant-ligatures: normal; font-variant-caps: normal; letter-spacing: normal; orphans: 2; text-align: left; text-indent: 0px; text-transform: none; widows: 2; word-spacing: 0px; -webkit-text-stroke-width: 0px; white-space: normal; background-color: rgb(247, 247, 247); text-decoration-thickness: initial; text-decoration-style: initial; text-decoration-color: initial;&quot;&gt;Automated Rollbacks&lt;/strong&gt;&#xa;&#xa;" style="ellipse;whiteSpace=wrap;html=1;fillColor=#ffe6cc;strokeColor=#d79b00;" vertex="1" parent="1">
          <mxGeometry x="560" y="120" width="120" height="80" as="geometry" />
        </mxCell>
        <mxCell id="yBGPnmWxFxPPeFnYxGfm-7" value="&#xa;&lt;strong style=&quot;box-sizing: border-box; font-weight: 600; color: rgb(60, 60, 60); font-family: Poppins, sans-serif; font-size: 15px; font-style: normal; font-variant-ligatures: normal; font-variant-caps: normal; letter-spacing: normal; orphans: 2; text-align: left; text-indent: 0px; text-transform: none; widows: 2; word-spacing: 0px; -webkit-text-stroke-width: 0px; white-space: normal; background-color: rgb(247, 247, 247); text-decoration-thickness: initial; text-decoration-style: initial; text-decoration-color: initial;&quot;&gt;Horizontal Scaling&lt;/strong&gt;&#xa;&#xa;" style="ellipse;whiteSpace=wrap;html=1;fillColor=#ffe6cc;strokeColor=#d79b00;" vertex="1" parent="1">
          <mxGeometry x="410" y="50" width="120" height="85" as="geometry" />
        </mxCell>
        <mxCell id="yBGPnmWxFxPPeFnYxGfm-8" value="&#xa;&lt;strong style=&quot;box-sizing: border-box; font-weight: 600; color: rgb(60, 60, 60); font-family: Poppins, sans-serif; font-size: 15px; font-style: normal; font-variant-ligatures: normal; font-variant-caps: normal; letter-spacing: normal; orphans: 2; text-align: left; text-indent: 0px; text-transform: none; widows: 2; word-spacing: 0px; -webkit-text-stroke-width: 0px; white-space: normal; background-color: rgb(247, 247, 247); text-decoration-thickness: initial; text-decoration-style: initial; text-decoration-color: initial;&quot;&gt;Flexibility to run immutable infrastructure&lt;/strong&gt;&#xa;&#xa;" style="ellipse;whiteSpace=wrap;html=1;fillColor=#ffe6cc;strokeColor=#d79b00;" vertex="1" parent="1">
          <mxGeometry x="240" y="37.5" width="120" height="110" as="geometry" />
        </mxCell>
        <mxCell id="yBGPnmWxFxPPeFnYxGfm-9" value="" style="shape=image;verticalLabelPosition=bottom;labelBackgroundColor=default;verticalAlign=top;aspect=fixed;imageAspect=0;image=data:image/png,iVBORw0KGgoAAAANSUhEUgAAAmEAAAD8CAYAAAA/knP/AAAAAXNSR0IArs4c6QAAAARnQU1BAACxjwv8YQUAAAAJcEhZcwAAFiUAABYlAUlSJPAAAKC5SURBVHhe7f1nlGTJdecJXtfuoXVEaq11ZmmNUiigAAJNEiAIskGih2K5c06fs33OztkP+MCve2anp7tnZ8kmmyB7mmQ3AAIgCBRQQBWA0ipLptZaRGREZOhw7b72M3fL9PRy9/CI8IjIyLw/wMojXbxnz56J/7t27ZonGo1mRVEURVEURakpgUBAfD5f/l+fxpt/VRRFURRFUWpIJpPJ/1UaFWGKoiiKoihzgIowRVEURVGU2xAVYYqiKIqiKHNANlvZ7V5FmKIoiqIoygKgIkxRFEVRFGUBUBGmKIqiKIqyAKgIUxRFURRFWQBUhCmKoiiKoiwAGjFfUZR5I5VKSTKZlEQiYRMxdMLhsASDQfF6vfbzWCxmX3nfRZvmc4/Hkz+KoijK4oG+rBwqwhRFmVNYop1Op62wcuIrHo/L5OSkfa+lpUXq6urE7/dbATY6Ompfm5ubrfjiffdKQqwpiqIsFlSEKYqyYCC4JiYmpL+/3wooBFdTU5O1cGHd4tX9jWUMwUbiu/wOUWb6Kfub1tZWiUQiKsQURVk0qAhTFGVeYcoRaxbWLoQV1jAS04uhUOiG5avSFCO/4xgIMIQc8H2OQ6eGGONYKsgURbmdURGmKMqc46xYTDE669fIyIgVW42NjdLR0WFFWDEElLYizfyNyEKWldJmHOv69etW2CHAOCadm5uqRIxVEnWKoigLgYowRVHmHCe6rl27ZkURPl3OrwuBhAArFkkZ0/skU1mT0kbEZc3vfBL0e8Tv+7SYcgKPV841PDxspyoRY52dnfaV8yqKotxOqAhTFGVOKJwudL5cCCWmCRsaGmzC38uBxSuZzMjQWEquDaelfzQt18ezEk1krQgLGAHWVOeVjgaPdLX4pL3JL431vk9NOWINQ4iRwPmVuenO+vr6W86rKIqyUKgIUxSlZjixxfTj+Pi4tX4hxBA/WKPa29s/Ne2IwEqkjNiKGdFlBNjpywk5cSkhJ6+k5OpIVibjiDARDFkdjR5Z0e6VzcsDsmFZUFb0BKUu5Jdw0GNE2qf9vzj/0NCQFWRYwhBgrLgkD06c6TSloigLhYowRVFqhhM9CC+mGhE9JCd6EEKFogexNmnE19mrcTl4LmFSUs4NiIxOZiWWQJxJzh/M/Ddr/ovOMppLwiGPLG31yIYlXtmzLmgF2ZL23NRm4fGd9Y1XLHMIQwQZ+UEUtrW1fUoUKoqizBcqwhRFmTGIKKYbEThu2pH3EEJ0LjjJF4eNSGdE4smMDI8l5XK/EV3X0nLqakrO9qXk8mBahqIecxzTAeW1FC/8jY+YA4f9hlDWWsZWd/tlXY9f1vT4ZGVXQDqb/dJU7xef13PjGODy6WKQAcIQsUhiVaZaxhRFmU9UhCmKMm0KVztiXXLxuvDzIl7Xp/y9TGLaMZ7MykQsIwOjaTl9OSafnI7LgfMpuTLkkYQRXg50kNFQJbHH4j8kvmde2uuzsrrTI/vWB2XzypCs7AlJQ9grkaDX+pIV6yqsYVjtcOAnn1jriDXGtKmuplQUZb5QEaYoStXgPI8AQ3A553dEC9YuOhMsSoiaYotSKp2Vscm0nLoUlYPn03L4YkYuDaZkZCJjfb6cAHM/mUr+3OiYzB8Z88I0Zdgv0hTxyJI2j6zt8sq2VQHZuCIsyztDdlVloabiGhCQJCxkXA/JOe6TnBhTFEWZK1SEKYpSEYQXVi/ECtsK8e/C9/GpQrzQmRSKllQKgZWRgZGUXBhgujEtJ68k5dJARvqGsjIayxgxdKvwmonxqXCaEhqCWWlr8Mjydp+s6gnY6crVXT7pbvVLawOrJL3iLTgR1+SmU7kmZwUjISa5LgRZoWVPURSlFqgIUxSlJE5kYS1CqOBLhVhBnGApYsrRxflyZOxvjLBJZmRkMi291xNy9EJCPj6TlEMXUtI7ZsRP1iPBvJ5BC5WbdpwudFY3pinz4DfW0yqyb11Atq0KyvqlQWlrDEgklJum9OI3lv8uOKsYU6xct5uqRGQ6K58TaIqiKLNFRZiiKJ8CAYbwwm8Kfy+m7wqFl7MMFU/XsdJxcCwppy7F5fCFpBy+mJbzA/iBZSVlxFkKy5f5ntMwtZYyxR0W5yG2q8mu9LR4ZF2XV3at9sum5UFZ2R2Sxjqu42YuuE7n78b2SogyyoB/c934u7ltlRRFUWaLijBFUSwIL4QHliAsXliCeA+c31epfR0TRllNYPUaSsr5ayk53ZuSMyZdGkxL/3BWxuzWjh7xGb1WK6tXtZB9rGNJI/4igay01hkx1uaVtd1+2bA0YF590tMekNZGv4SZpizIIMILIYrfG6+IM0B8IsgoDydIFUVRZoKKMEW5yym2/GD5YjoOoYXlh4TYuGXa0SgbnO1Z7Tg0npLL/Qk5cIaVjkk5djkjg5NM83kkaPQJumaetVdJEGOEx4ilstIcEVnZLrJzlU+2rQrJ+mUh6W65OU1ZHN6CsmE6tr+/3woyhBhBX92CBGcV1GlKRVGmg4owRbmLQYBh+SJUAwkRwZQj4RpwuCdh6SmedhydTEnf9bgcNaKLacfjV9NyZSgr0ThCJyvpbM7XCk1yO8kSZxnjclhRabSTjTW2qt0je9YGZPNyv6xcEpLWhqAVYw4sgpQVYgwRhqWQaUr+TfmwPyXTtYhVRVGUalERpih3GYgJLF4ICRJWMN5DgGHRQUyUmnaMxrMyMmHE1kBCzvYl5XRfWs72JqV3KC2DoyJGl1nr10JMO06XwmnKgC8rTaYfXNbulRUdPlndReBXI8Y6A3ZFZV3YZy1jDjdNOTY2dmOaknJCqCJanXVMI/ErijIVKsIU5S7AWXKcNYepNSw5+DthvWFPR7bwKZ5Sw6qVTOW2EOobzomuj05NysHzKTl9zQgv837Q57FbCS1WCqcpQ/6sdDSIbFnqlT3rQ7JrTUh62oNSH/ZKKOARv1GYBcVjyxMh29fXZ8sUmKbEmogYozwRtoVlqiiK4lARpih3AVhvsNwgvBALCC8nFLB4uWnHYrFwfTQh5/vi8v6JuJy4kpELgyJjk7kAq/E0IsR0FOYnt7vlayqcZYxrCXjFCC6RxohXOps9stUIsm2rA7JpRVB62kIS5AsFIMSwiLGQAYFLOSPMwO0eQDkriqIUoyJMUe5QnDhg6pHEv92KRxo+U47OWlPIRCwtQ2NJudCXkrPX0nKmNymnriSlbzgrw9Gc2uK/d7Jxxwoy84qFr6dZZEVnLvArqylXdvllWVtAGuv94i8Ib0G5Ur5YF/GzQ5BRtk7kEmuMpNOUiqI4VIQpyh1E4bQj1i+sXs4yg7M9VhnE16emHdNZSZrEtOOVwbicuhyXt47E5MSVrFwd8ditgWwQLvOT+VrtWK7zmY9zO8iDE2R1Rjut7szI3vVB2bc+JKt7wtJY58tPU7Ka8mbOnAAeGhqyoox7Qfnjb4fw5bvcg2IBrCjK3YWKMEW5Q3CWLgZ9xBciAMFFI3fTjcWhFJxouz6WkvN9CfngREJOXk3LhUGc8Jl2FEkYBWalQl5jzIcIQvgwRVgSk4H5EoJANjgXRRbEib/OKx1NXlnfLbJjTdBG4u9pDUooeKuocvfDTVOSEMO8usUPzhJZPA2sKMrdgYowRVnEIKKcxcsN9AzovM/gTgMnFYZOQNzgcM+G2oMjSblyPSnn+jJypi8lp68m5dqwEWCxW0XBfPp8IcCADblXdnis4EHgsDLzshGHfaO5L6Bb5lu6uLzhFtbZmJWVXT5ZuyQga8zr8na/9JjU0hCwfmOsEgV3jwqnhp3o4pV746Yq1TKmKHcXKsIUZRHiBnYSgzoO91hZeN+tzsPSUggBVlkFGE9mZCyWkQu9cTlxMS4fn0nIqd6s9I4WSBrz53xamxx0OBmTx4APXyyPPL3LL1tWBKSl3mOEYkrePJqS/afSEk3lvr8QCwKKrXT4ja3pzMr2lX7ZvobAr2Fpb/LZFZUBpilNJguzyT0jGG7hIonGxkZ7zwqtlYqi3PmoCFOURQgWL/yN8PfibwZxRBfWFAZyUuFAjuUrGktJ/0hKLvTlNtQ+eTUjl69nZdwIsmjCHDOdFzV5xbAA+uaGCFvRJrJ3jV++/EijLGvP7e8YT2Tk1QOT8vMPJuX4VUJKLIwIA9cxOjGG1a4+7JHWBo+s7vDIjtW5DcNXdIfM+75POfAjxNw0JeIZUYaYZpqyubnZ+o8pinLnoyJMURYZ+HwxaDOA43eE4HIO37dOO2YlkczI6GRarg0b8XWNvR3TNp3tS8nAqBFgiVtVzEKJGocTYdtXeOSJrQF5/oFmaWu+GYTsncPj8uL74/LK0az1V/P78h8sEIiwQkFGBP62SNauplzT7Ze1PX7zt1+WtPns/pRsi0SsMQf3DxGGRYyEOOMecj+dZUxRlDsXFWGKskhAVGE9GRgYsFNZWEuwmjBgF8K0o1vpODyelHO9CTl2ISEHzpm/+7MyMJ5TWrglLbToKsaJsPvWeeXZPUF5bGejNDfcFCIHTk/ILz+ekO/vT8uE6Z4igdvnAj41TWkE2dLWrGxd4ZMdq4KyfnlQulsD0ljnL7s/JfcWkQ09PT1WWDM9qSjKnYmKMEVZJDBddenSJTsou+lHrCaFgzTTjuOTKbk8kJDTV1Ny6EJGzl1L2a2Fxk1zTqREUvlWfZvpL8tUIuzjkxPy0ocT8qMPjQiL3V4iDAo7THKGb1tdyGN92nDc37zcJ9tWeGXN0pB5zy+h4M17h8hGiGERc5ZO/PsI+Kooyp1JJRGmnqGKcpvg/IaYvqLRMlXFKwKMwTueSMvVwbgcOD0pL388KT//MCa/+iQu759KyMkraekbycpEwggwI3AQB7ejACsknjb5NSILQVYI1r2JWEZwsfLfbmY8gytbl7O4Eb1DE1m5MJCxWz29cTQhL34Yl5/tj8pbRyfl9JWYvR6u062URFxzf7nXCDL8/pimVBTl7kJFmKLcBiCyGIyZgnSr6HDAZ9DG8jUZz0jvUFIOnIlZK9EP3pyQn+yPy1sn0nJp0AzkRrigV0iF01+3M5NGgA1NZIxovNUYz7WMjmetCCtwrbptceXOZQxNZuTIxbS8dCAl33tjUl54Z0LePjIh568lrN8e95KrdT5hiDEX8JVpaOqBoih3DyrCFGWBYeBlIMZPCGuYc8B3jI6n5Oi5SfnHX4/Lf3s1Ki8eSMvFQY/EUkRkN42YtEiEVyHxJHHMMpJM5aL/Uw5YgyZjGRmO5kJtLCa4BVaQmfuBlhqJeuTAhaz8y3tJ+aufjsqvPxm3+3SycwHgkM+m6ojtaDRq771awxTl7kJFmKIsMAy8o6OjVog4CxhTkBkzkkfjaTl6MS6//CQmH5xOytk+I1AmclNgdnrL/H4R6i9LPOmR8ZhHoomMtRAB+oQp1VEjwrL561tMFN4PpoVHYyKXrmfl0PmUvH4oLq8djMngaFJSRmEWTk1yz5mKRowpinL3oCJMURYYpqGYjmJQbmtruxGyIJXKSv9I0vp8vfRxQi4P4ZTvsfGqmKZbLNOO5UimvTKZ8BoRlpWkudaskS+ptMeGpRgz4sW+s4iv0U1TIi/HEh4jolPyk/1ROXs1IRPRm2Y+rJ5MQeMXpiJMUe4uVIQpygKC9QtLGNORWL8YkBFjwED99qGoHDibkOtRj/U5WozTjuVIpNJGcKWsRQ+YjkyZ95imtJa+3NuLHm4Z920yKXJ+MCuvH47KGSPEHOz56VZPURdI6humKHcHKsIUZQFhwMUShvWLhBBDhDFdNTyRlgPnUnYvRYbyO0h/WbhOn0k3rF3mMnPiI7fIgD/vFCnCJXIHJ432+vhsSi4O3HTCZ9cDF4KE+kDYChVhinJ3oCJMURYQt60NlhD8gxxs33N9LCUnr2VlOJrbMueOsYLlxVUk6JWmen9u70WUGP83r5GgRxqtYShn/btTIPK/11zP6T6RK9fZ6eBWixdCzFlFVYQpyt2BijBFWUAYcAlNgQAr3L6GkBQDRoSNxYiMn39zkYGMwNGeVY7FKZbKSluTyNblIu1NfgkFvEZkeqTOqM213T7ZttInHtM7ce3uNwgyd8zFKs7IdzTJjgZp6RtKWF84QICxMwL1QC1hinL3oCJMURYQLGEIsWIRNjKRlt7BtHVadysHFwvoByuYTMJ45/dlpT6Ylc7GrKxo98i6Hp9sX+GVXat9sml5wAgvI8C8uWlJNsFe2u6XXWuC9jvru0RWtol0md82hbIS8uamKoFz2PPk/rkooEzQXdzf/uGU3XoKmJJkhaQL3sqroih3PirCFGUBQYSRcM4uFGHDY2m51E8oA1YI5lXHIsBKCsSU6VkiAZHmiEe6mzyyskNk6zKP7Fvrl0e3BOXzuwLy8KagrF0aslawQjqa/bJjbVCe3OaXx7b45Z61Xtm23Ctruj3S1SLSVucxos5jtwtadFO0Jr9keXwyI9eGM+be59829xhrGHWBeHEqwhTl7kD3jlSUBYDpJgba3t5eGR4eltWrV9t4UU5w/fz9Mfnhm2Ny+LLH7gU5m8jxNHAsRhx5LkSLOz5/4PfUFM7KsjaEl1d6Wv3S0+Y3wsonDXU+qQv5rC+Yz5uVSMhj/u01v/FaK5gD4RlPZmQ8SiDXrPk3UfQzMjqRkqHxtFwfycilwZRc7E/J1SGi7hNbLHcAjjOX18ihZ3N8awkz+gpB+vjWgHzp4WZpN6LT1Ydr167ZXROoD5X2m1MUZfFQqS2rCFOUBYBBF98fBl0Cta5Zs+ZGlHw++86rY/IPvx6X65NsWzTzgZ/GzcBPclYYQKzMQktY7HHNK1av5khWOo3Q6m7xypI2rxFhfllqXlsbfTY1RHwSCHitE75vmhfDedjaKJZI2+C1WJEGR9LSS7qekSvX03LZvCLIxibN9/J+VrW8xkI4ZqFonC6IuZ6mrOxe45c//nyLLG0PmOPlDnj16lW5fv26rFy50u6cwDSloiiLGxVhinKbgdWDbWoI0kqAzhUrVlifIAQYq+b+5qUJ+buXJ3NCwqSZijB+hxUtGMiFuGCWK5bMWud2BMZMjkuH4X4b9HuMABNZ352VHasDJgVleVdQmuoDEgnlwi7MFfjKTURTcvFaXI5fTMr+0xk505eW/hFTtkaIuRm9mV4j2Gs0l8F1Uo4sFCCOmSu/mRLwZmX9Eq/8v77aLGt72CEhJ7YQYYODg7J06VK7e0LhillFURYnKsIU5TYD3x8sYAgxrCAdHR3WLyyRzEjv9Zj8X6/E5LtvxiSSH/ynC40aiwtO7VuW+2TnmpAE/CIDI2nZfyIuJ/tYoYfflmfaIiVhhAjHX9rilb1r/XLPer+s6vLbabXGiE/CQaYY2ddyBupnGiCCEGKxRMauJh0eT8u5voQcOZ+QN48m5NJQViYTnhlfo9eTlTUdIrvXBmTziqCEAiKX+lNy9ELS7gnJ9kqzucQVHV75d1+ql62rQtJYZw5uYCqShFXUbfCtKMrippII833rW9/68/zfiqLME4gwfMGAARcrGFNPMSPCLvTF7T6RJ65mJIiYmeZAj0DiNziv71kflM/sDMmutSEjlALS1eqTljqf9bsansjYyPTZ7NTn4JiAMFlixNeOlX55aEtYHtgUkh1rgrK8MygtDX4jwHzic3G/5hhrITQZDwa8Uh/2SWuD16Y2k1rqfeY9c13me/FkLqwFFzFVthB25hbYOGVYqp7YFpL7N4dk++qgrDTl19rgs1ax8/1sNJ73E5vBpeIXxtQsArm92WdEWG5RBhZSrKFYR1mooX5hirL4KVx0VYyKMEVZAPAHGxgYsI0TiwfTTgiXaCwjRy/E5eD5lFwczNoBf9oizAgDvzlWlxFLT+yIyNN76qW1MWAHemJybVweMMfMyPBoSvrGjCBIM2VZ+SR8yiLG5jqR+zf45Yv3hOTZffWyYVlIGiL+vHP91BlFYOQsWLl/l/tN7jvsHunIhbCoBMeqM2Ksuy03LdrTZK7Lk5br4wS/zQuxCvAx2Uqbk29a6pWntgfkiw82mGsM2+lVYpi1NCKMvHLkXFyGrIjN5WvqK78Va2nzZmVVu9jFC50tOUsYELCVKUkso0xJKoqyuKkkwmYw0aEoSi1AkNA4C/eLTKSycrYvKSPjaTsVWesGynmwuO1aVye/+Wij3LfWJ52NOYFSrFGw8rhAqc3hrOxY6ZH/6Zl6+c2HG2TbmjqJhKrPHdeKuMC5fmQ8KZf7ozI8lrDv8VkxyVRGrg7GpH84LpPRlBGKaWslqgZ3jWuWRuS5e5vkD54Ky+NGUHU2+oz4LB+F3wbF9WRl5zKPPLMzJE8Z8dpsxFehc3zaFEbSfJH4Xk5IzgQELR5zvUOmPIyYc3Aut3WVoih3PmoJU5R5ptApHwHW1NRkB13ECCEYfvVxVC7241w+fSvYDczvvOY/PS1e6WoWqQ/n/LQ4Dwm/rSZWLHpZCJCVMSMEkmnPDWsRGoA/cUpf3u6xflEPbw3JfZvDduqx3vwWQVMOhE7CCCnCSlwbSsqFa0k5cSkhh86TUkZopiXo90pnq99a4YpFx+hkRl45MCmHzyfl/LWU9JljjIynZDKetlOpiKUb2x2VgPeJP8aqzNZGj9SH+LdH2CA8md8g3F0jGpDXxpDImm6vPLkjLPdsDMvqnpARyTcFGPfn2lBCjl1MyP6TKRmeyErGlPFM7xGHrjP5WtkdlDU9uRWSJIQp/oJYR51AL3ediqLc/uh0pKLcRjAViQgbGxuzjteNjY32/YxRLv0jSfn5RzHpHUIYzGzgdeM1qyCD3oyEfWlpb/Ja3ykneBBQoSDR6X32vCNjKRmN5vyhECUcA5HQ1uCRhzZ55endEXlkZ4O0NASs+CkH4gsr0UQsI9eNoDx/NS5Hzsflw5NReeNwTF4/nJD3TiTk8vWs9LQGZMOyoF0ZWKwxro2k5b/+clxePRiTj88k5EJfwkaYH5tMW785fNMQlSantpRyQsX+9Ba43vqwX7pbfVZMphK5raCGxs2H5vuIL35H4Nf1PR55eGNAnr2vwQgjI8DyKyK4JoTfZAyn/Ji8dzQmR69kJZqcuQDjvDbvHq+sXeKXDUsDucUMJjOIMJzz6bjxFeRVRZiiLF5UhCnKbUQ8HrdbFeHzgz+Yc76eMIP8xf6kvHooKYNGJDBJxdg7m+F3wgiOvhHiZ6Ukm8lIfQRHdp/YbYLM/xAaTXUe6WjxSjadkYydbiMEg0fWdXvk0a1+eXJ3naxbGrI+UZVEB0IFkXTiQlT2H4/KK59E5deHk/Lh2bSc7s1K74gYAZQTly11Wdmxym9XHZazhL17LCqDYwRq9ch4zCN9oyJnr2Xl6KWUnLmSlKuDCUkaUeXzeyQc8onPHKOcVuEcoaBXutoRO0agmt8RDDbgy0qX0cDbl3vlsR0IzTrpaglYK507Fnk5fy0pbx6aMPcmYa7HiFauIy9WZ4L9nUlMb64zImzzcr89J/fFWUqZmqTzxiJWOCWqKMriQkWYotxGsPKNhJUDAYYYg+FxIy56k/LeiZSMRdmuSGZsaXEQbX/cHAshMTqZtYFOEVpWlITwP8pNTTbXeY1AE+lo8hkR4rMBV/esDch9G4KyfllYGusRYJ/ODFN0+G8NjKbk9OWEfHImLvtPJuTA2YQcv5yWiwNZuT6eC+eAM3o6Y4SfOXd7Q1a2rwrKxuW5BQnFImzMCKQPT8SkfzRjRVjS/C5qjoG1jmnA4fGMEWgk/m1ESzxthErWXg9iphiOHzCCs7HOZ6clmZ5sMIIUAbRzddCuIt2+OiQrukL29ywKGI+a/Pcn5ODZmLXefXAqISevZqTfnBNLFmcpUSTTglWSq7u8srabqVMWOOSmpRFirKAlYS3FT0xRlMVJJRGmccIUZZ4hIjo+P/iCMcA6S9iZK1F5+0hU/vsbCTPQG0ExywHeQQPHpz0SyEpXc1Ye2BCQezdFZNuaSC6SvT1RbuCfjKWtAEIQtjXmVu1hhSkWSYAlKJ5Mm+8m5ei5uLx/Mi4fnUnKlWGvxGzoCxzNrcHnBkzthU1/tLEnI196qEGeu6eh5PGvDCblP/9kSD46m5K+UU/J47jjL2nKysYlHnl4e8TG3FreSUy03NReKZgu5TqvDsYlEvRIS2PACiCEqTmknZ4dm0jJ5QEjvI5HZf+ppBy+lJFoymvLEYrzMxNy5xJ5crtffuPeoOxY32DvB/cBayn1hM28CeSroSoUZfFSqf3yMKcoyjyD6GCaqfAJaWQ8I5cHUzIay+2XWCsQC4iGRNojfSNeeeVIRn7wVlT++Y1RK/zGoymbH8RQxCik9qagrOyOSKt5LSfAECpMnx48Myk/eHNCvvNmXN44lrECLJ7PezmhgnWvLuiVMEFUyxyftwgum3fL+hR8znEQYwPjHvnkgtjgtj98a0LePTJmRRRiphRY4ogrtqIrLF2tIesz5gRbMplblfn6QXNNr07Izz5JybGrYhdJAOcsd10zZWSSLZfSkrqx3ZLH1gvKRlGUOxtt5YoyjzDVxBQTzvlMMblpJt4fnmQvxLQNfcBgX0s4nLVcpUSujeb8qt46FpdfH4jKqSsJu2E238JHDN8pLDKsLiwlkJh+HBxLyfsnJuW1Q3F5+1hu6pHjOgsYvyp3CRwTvzS/v3woBt71e7Nly8Ee3/yHV6Y5hyZFzvZlZP/JpPzqEyMID0/K2d64vS7yUwi/Y9oPIcbWSrlVozev660jcXn9cFw+Ppuy06n4sWWyeNDdPGctYaq4bzgj0WTWikrKhHqhIkxR7ny0lSvKPIHQYuUbAozpJmDAtcLMvD88jhN9xsaPKmcBmg0ICGvJMWk46pGjV0Re2B+TD0/FZWIyZf2gqgFfqTNXYvLCu5NGxCXkhLUU3Xp8/i4HnyHAfJ7yF8l3KIOpdIg7HwmhdH5A5JXDafnBm+Py/vGojE4kq74upihZhfnzD2Py3qm09I3lQna4488VLJ7oH0nLZCKTC79hcBZC6oaiKHcuKsIUZZ5wVjD8A9rb229MRTJrNhklpENGhifylqQ5HPSB43OekUmvXL3ONGhCkvnpsHKQf6b4jpwzAuy9SfnkYkb6TX6nC+cO+tLi95aeLgRWCdZFCKsxvYLg2EyHHr3qkXdPJo0Qi9lwGdXQN5ySYxfi1tmfqdtaTzsWw7E5x6TR4wNYEU3GC6dQXXmXC2irKMriR0WYoswTDKisimRAJQinm25KZYhblbIr/sbjnlxoCvvJ3MHxMRBNJsWIjrT0D6enFGFu6pAVhj1tAbstEqsMAY1QjUzgnFxvwM9KxvK/oGQiAW/FmGTF2DyYRDR69rdc0uqz+0hWa1UcHU/LlespiSby04L59+cUc56ouQfDkyJDI+bcsZvOgIh1Ysgh3AlpoijKnYeKMEWZJxBh4+Pjdjqy0N8Hh+zBoaQRYrko+QiA+YDTJM3J8EXCWlSNtYV8b1kdkS891ChPbQvIhiU5B3tnWZsKQjLgfobTPQ7y5eB4Ib5TRWQGTutEIEFXO5u88pltPnl2d0ju2VxndwuoBrYtIgwG5PXmnEJ+uddY3cZjIn2DuWC0DgQYFlNihrnpa0VR7ixUhCnKPIEliRWRWDiIEXbDEpbO+YIxHRk1gmw+RBiiBSNTd6PIjlVBuc+IlboqxYqN89VoRM69TfI7j9bJb9zrl56mrHWknyrvWKkiARE2Jq9kocqJMGKK5d+oAOIpbsqwKZyVx7b65ZvPhOW5extlzdI6W8bOgjcV65YGbcDWZe0eCfvn/j6QK6fFWTAxMJ42YuzWkzIVyc4KKsIU5c6kul5XUZRZg6UJKxiv+IM5x2v2WOwbSstolO14cqvw5hqGesTQzpU+2bIiFw8sUI3iMaBpCPC6rD0gu9awOXZYnt4Tll2rfNJen1vRiIBB6BWTe8sjgQArAMtfKcdgWyV8w7CeFR+Lf3IOUnNEZNMyrzy1OyxPmnTfxrCs6g5JU/30NsJuafTLeiPEtlEezV57zqLT1hyXO2KXDY5mZHzypv8XeZ+OiFQUZfGhIkxR5gmmIycmJm6ZjiTeViyRkd5h/IGyEvLlRM5cwzka67zy4OagrF+SC8haDFqA/GXMH8UiyNHeHJDdG+rldx9rkOf2hmRjj0hDOLeykZ8U/wyxkTDHDBvBR0DVciA8wiEjSI0Ii5nflDo/18AG4+t6PPLsjoD8/pMN8tiOBhv7q9yx7fXkUzFEym9rCsiedQFZ1YH4yX8wDxAXbmAkY4W4c8SnDAhVURxPTlGUOwcVYYoyTyB0mIp02xRBPJmVkcm0XZE3OY++13U2er7YbYM6mksP8ARxHRiJy9hEUhLM+ZWBSPNsa7Rvc5185Ylm+cI9Adm6jMj4uZV+xQIKax+rHiv6exkBxLQnFrFi0E9MF65sF/ncHr/85gMReWpvvbQ3+iv6mTHte30sIdeG4/bVhYMoBP82NhVf1e2Xlkhu66hyArSWWBE24bWrY93CAHDCXacjFeXOREWYoswDLjYYqyJvEWGJjI2UPxS96RQ+1yAqOpq8snmZTzpbAzZgaTFYYti2592jMXn7aFTO9iYklkhbq1gxCBWmMrtbArJtVVge2xYxKSz3rvfLEiP02KYIUeGEBd8PBz0VLWFoKX6Hoz3mNH7K75nB7GkSO/X5xPagPL4jLLvXh2V5R9BOkXLsUsSMsCEEBXtAvn0kJofOxSQaz4nEQgjc2tFsRFinzyQjFvMWvbmELHNt1yeyMsg+m1FCVeTOai2CRrhjEWOVpJuqVBTlzkBFmKLMA6xwYx9ARBiDqiOaNAJsPG0313bb/cwlDOFIjxUdXtm9JmCjxhf7HDHQJ5NpOXExKT97f0L+5e1x+eBEVAZGsIiVn5rEItZc75Od6+vl2Xvq5Av3hWXHCq90GtHknPCZ9QwbDVo/RQwwxBbfiYTYeDsnVDhGY0Rk23KPPL07JF9+qE7u3VwvPW03FzkUQ1YJ1koZHzXX8+L7CXlhf1TeOhwzZY6ozH3PgQ8aonRlp1+2GJHK3pJzDcVPmY5MpOX6WFKGJwicm/uMaciOjg67kAMRryJMUe4sfN/61rf+PP+3oihzBCKMxIbdWMKcaOi9npRjFxKy/0xaJuI5S8xcDvscmyCpe9cH5eGtYWllCq/IQZ4p0ou9MXnreELeO2mEwbjH+iqNGZHQ0mBEihEmQZY5VgDLWHO9X5Z1+KTJCCefkX4JIzh7WjyyZ41fHt0elu4WfJ1KH4cpyzojwCbMeScnU0aUZWV9j1ce3hKQJ3fXy5aV5D1oz1PO+gW5vSDj8taRmLz0UVROXWUValbSWY+s6/ZKU51XwiUsgemMR2JJkaOXkua+IHzm8q7kYHZ0WasRgEYgd5qyoYydXxihTUZGRmz9Uf8wRVlcVGqzlXtSRVFqAr49JMSXE2BYNYgL1T9KoFTemVsBhpRAb7XWiXQ3+6SjOfApAQbxRFZOXUnKpf60jMaMAIt75ExvRt49kZBXD8Tk+KW4EUdskF3eKsO+k21G4G1cHpIHtkbk6T0ReXZvRJ4zr49vD0lPa8DuUVkOVk7iZ7ZjTUiev6dOnjPpGfPbR7dFZLMRYF3m90w/VnABsysNz/fF5c3DTKnG5OjFlAxPGjGZj1B//BL+YbbgPwUWvRWdQeloJFxFzlI1l3D4rBGG41GRwXFCU+TeR4S5DpzpSEVR7ixUhCnKPIIAY2BFgKXTGeuU389+kUZMlDEK1QyEBPpvWatHelq80ljnt1OIhfCdaCIjJ40I6x3OKQG+MmaE2IlekZ/sj1pBc/U6PmJGWFYQJ3brIaNgNq0w4uu+JvnXTzbKVx5rkEe210uTEVjF06DFUFabV0bky482yx882yRffLBJdq2vtwKpON+FcA043feaPH50PCo/fT8qH53NCUqXXaxbRy4kbYT8UgKrIeKVnjafLG0xYjCc89mqcKk1gx0TBkY9NvZZIQgxVklOVWaKoiwuVIQpyjyAPw+r3LCGAYM6Iub6mMi1Ua8ZdOd+cGUFXtacZs0S4mCVXpo4EUtZ8XKqNy1D41kr2sgZYz9iZXjSK68fSco/vjIhh85OyvBYMvfDKWB6sT7ik3DQd0OIVgtfDfrYfqi63yAij5i8vfhBVP75/aRcvu65ZS9Ijofl8UxfWi4PZmTSXHPJkBVGGeOg39Y4f93k6ESu/CfMNRSu3sQKxtZF6hOmKHcWKsIUZQ7JObnnhAq+YE58MOZPJrJyfVyMEGOqMju3U5H5sZtViUyztTaV9lEYnUjLxYGk9I5kjRDIiRZwr2w5dPl6Rt4/lZKXP0nIR6dj0j9cOtxDIVy2HyFl0nStOXwbp/xqNNj10ZQcOReVlz6JydsnknKu34gsU/xcv/s5r2R3wAhgguSy4KBU/lk4sLLbL+3zIMLIE8UyHsvYKVLEGEF8Ha7MqE8qxBTlzkFFmKLMIVi+WBWJc3Vzc7N9zb3PgItlKSPDRvhYkeBUQo1hyEb02dWFIa8s6QhJc11pETY0ZkRYf0rGoh4juD6dIYRQyrzfNyLy4/cT8tJHMTl2Pmr9r1iFuFBQfolUVk5fickvP56QH76XkKOXcyKGPBeXLVmNpbzSP5KWKwMJ+9tiCKGxvNMvrY355ZlzDPmMGeFLmIqRMUKa3JyTdEFbCeTqrKmKoix+VIQpyhzCoMmqNqaSCi1h6XRWRscSRrxkrKiZS/nCGZmKC/qyUh/OSlsDKwJLq4qRiYz0DqRsZPtycAkIBoTMgXNp+d5bCXn90ISNK7ZQjEXT8vqBMfmX94wIO5xb6DDFAk7L4FhGzvWlbeiNYhCtDRGfSR6J+NlSKv/BHEF5JkxdmIx77BZGEwVxzAhrwspI9pFE1CuKcmegIkxR5hCsFi6+U6FjNdNfWGGGx40ASHvsADynmOOzIXZT2GudzkNFMbo4fcpkYiSalWujbC+Ue78U/JLL4JUAo0cupuWVg3F571hMzl2N2aCu1UyZ8Z20KR+i8cfNb1yaamqzEI7BIoH3T0bl5U9i8tGZpClX83vz/2pE07DJ/5WhbMnrZWEBcdQajRCrD3nt9Vafs5nBDORYTMw1MSV5U4Qh4EkIMAS9oih3BirCFGWOQSi46SQnwpIpIx4GUzJoRFjciI65HNw5NiKPkBCsiMQvrNSqSKbkRiY9Rlh5JV3FQgEOQZpIZOWNY2l56eOovHNkQkbHk9bHbSpS6ZxTPAFK8ctyaXwyZYXYVDqOck2l0nLkfFR+8s64/OpISq4MszE515cTilMxFvNIX341YvHpuLZ6I1qJJcaiAgKITJWn2cD5EGGjcSMMTd0oFGEsZqAOIcCcj6GiKIsfFWGKMocwHUmgTQbPwvAUCSMeBkfT5n02s/bMS0OsD2WlsyFdMhQGogkfJFZHTsaJR5XbN7Ea+BrTnWf7svL60bScvpqQsYmpY1qd703IL/aPy1++MCb/4UejN9J3Xh2TD46PG4FWwRxnsEL2elKOXszIkUtGHWU8VU1BFoIVbsKIvrHJT++Pyb3inoUDWWkMpczfc6jA8pB/vPWuj7OZ903/L5cXEqhfmKLcGUyzy1IUpVoQW+AGz5tWsExuFdxoxggesTHCrJKZY4L+rERCOcFUDFmNJbN282j2WeR/1WSJK2T2kPAXTGX2cU3m9yX83G9gp2KHk3LwXEJePZSQd08kZf/Jm+mNo3F580hcLvQlZNwIkXKQZ1YQjkUzMjxpzmmOiwGuGmuVLXLzH34zmUhbwZcs4RfGPQuxzVIwf5/mGGeg7B/NysiEEetJYrEhiD036g/1yiVFURY3KsIUZY7AWsFAWV9ff8t+kWwLRCiI/jGRcSPC5guPae12mi7/70IQL7GEx67OwxCWIaBYGRj6byTzH1LCHMBrHf9F6oJeCVRQLGycfeLCpN1Me//ZrFyf8Eg06b2RTvaKvH4kJQdOR6V/qLz/E2KyLuSVRhzng0aAmffSJjO82nzxyhfLgOBh+yK2JyJP5XzRQn6v1IUR0vk35hB0FveC8BmskoyZfGULjF5OeKkAU5Q7AxVhijJHEJyVlZFsvow/mIMgrXbT7uitQUTnCsbrWN40hUN+qXMxqCeSSTvFhzApZ1Hi/YQRaeOJrE0eT1Y66zOyd6XIF/cG5bcfisjapSEjWkoHg0XoMNX260MJOX45ZY+HGCpMgMP/Tz6My6EL5ac12dqorSkoD20JydcfDctnNnllfacRZv6M9bMjf9YqZ0RMuWvhWtMZr6SyPvPvUiVDfDPKLSeQ5hrySX7jKY+MTVJWKbtgAvAJa2xsNPnwWAd9nZJUlMWPijBFmSNwoI5Goza0QKEIY4qtfzgtY7GcQJjrsd0O7Cax2i/kvyl0CuE7DOr4hjERaf9t3mf8z2mArPiN4GoKZ2VJi8imJV65b4NfHtsWlGf2hOVze+vkqV0RuWdDWNoaA3Zj7VIgZAh/cWmQjbRRR7yZe98liJsMXxrIf6cMROEnAv+6JSF5bHtEnt1n0p6IPLkrJA9vDsjOVT5Z3eGRjvqsRAI5wcjp3DVxjbnkyU9l8umnyYlD8x2TlVxZzC1kAxE2NGHE+mhukQIgviKRiL1P+BmqCFOUxY+KMEWZI1KplHXMZ+DEGuZg1RshCMbjORE25yBuzAu6KOjHtyj3dkXyv+G7/A7x1lSXNaJG5N61HvnCHr/80WdC8mfP1ck3n22U33q8We7f2iBL2kM2yGk5WJVJHviK83EqBR9FjG5l66CpaG7wy6aVdfLcfc3ye081yZ9+rsHkKyJfezAon9nqla1LPdLdnBNiOL7fWDmZPzRWwKmCoCKDiJ061/fL5StqRChBfAfGmCZ1n+U280bcj46O2jwrirK4URGmKHOE2y8SCgUHFo4rAylhsd10V/PNBE7BCkxygD9aKWsO2cPiwyu6pyGQkWUtGdm1Mitf2OuXP/hMWP7vzzfIH3+uSX7niWZ5am+TbDbCp6uVqUe/tRRVS9AIuhXtXmmK5KZJiw1QCB1mBld2eqW9qfrjQtAUaHN9UFZ0heW+LQ3yxYea5Q8+2yx/+nyj/Olz9fLVR4LypBFm25aKdNRnJOTLOb0jbrze0lOoQC7MZc7r/ZqIZeXqQNqI+VwBsbgDQU+8MEVR7gxUhCnKHIB1BcuKc6BmoOcvtvYZHs/I1eHc6rZpaJeZY86BsMLQg9N9segBBBh+XKs7fXL/er98ZmdInt7N9F6dfGZXWB7bEZEHN0dk17qIbFoRNiKH/ScD9jdMPU7nOkImM6u7fdLV4pVgXve4KUKSz0NICJH1PT7pnOa+jVjaXDy07taArFsalm2rw3LPhog8si0sT+wIy1N7ctOWT+8217UtKLvX+O0uAuUWE1Bu3Dc+ns/7NWbE+uXraXPPcvXIiUVeqVtYWnVKUlEWNyrCFKXGuOktHKmZhnSxnRA/WKKGJnKr30rtzTiX4IvF+UtoMOvk3lTnk3s3BOT3Hw/KH322Qf7w2Wb5zUdb5P6tjbJ2acSIrqAEAz4rAmZDMOiR9Uv9stYIsc6GrBE/N8UNYhABtqLNI5uWBaSzpbx1qloo/4ZIQJa0h2X7mnp5YneTnT79N882mlQnX34wKMvaPeba8j8oImkEWG7FaP6NeeK6qScXBzN25Wahvxr1CwHGtCSviqIsXlSEKUqNwTrhpiEJT+FEWCqVkcGRuF0ZOZmY2+jrpUCATZoBvdRG20wnMq24pDMka5fVS0tjwE7tzQVhc9z1y+rkc/fUyTeeqpOnd/hk23KvrMIKt84rv/VQWP7w6QbZt6lO2ptvLmioJe56u1tDsrIrbKcwy10v9ymdykrUlF8iPX9iLJ72yEjUI9fHUjIZu2nxQthTrxBjJEVRFi8qwhSlxrgo+QyQt4iwdFauj6SMCMtILJUTYbOxKTH8cozilDbjNWLBJfOWdDWKrOnyyarugN1DshgsUUwrNkT80tzI1kY+O7U3F2B14xwblofl4a2sZgzLM7vD8uzukDy1h6nPsOxZH5HutqBEQnPTRbnrZTqVqUumMMtdb1ujT9YuDcjKDq/UB3NCjDAdhWVMmRffh5lCLsgfDvnEkWNnhSirAvIwJclqW1be4neoKMriRUWYotSYQksYjtQ3RZjI9bGMDE9k7Oo3RlsG25nCQI9VhvHejvl29DbnMf+IMfVoEkFUA36RLcs88rgRN4/vrJeGutlP8RVj82D+Q34Ic8H02VRChM2xcaB/dGeTfOWxRvnDZxrk+fubZNvqOiuMKonAW85VIIDmgjVLgvLk7og8usnkt90jyKGEORllSxlT1tZ33mSXF2xW5G022eHSzWHtCtqBESPqozctYYgwnPNZIRmLxfLvKoqyGPGYp6nZ9BWKohSBheLMmTPS3NwsPT091jcMP6rBkZS88PaI/PpwUg5eyoVLmKkIY5AHHNvxqwqHsjaMBBHk/T78mzzSUu+VpgavdDb5ZMMSvyztCEpboxnAp+lIPxUIISw1bHkUNaJhMpqUUNBjhVRzQ8DmZyrctFq1/majk0bMjqdkbCIpQVMIWPDqgpSDT0I1nkbFgsn1XRtKysXBlFwezMjIeFrGojlxFDPXzLaT+NyxorF/FH8ujxVj5GSmZY11rSEs8uR2nzy7t17u3Vxv38cXjGCtV65ckba2Nunu7rbvK4pye1K4Y0oxKsIUpYYgJhBhp0+ftgPksmXL8p+I3Wz62z8bkg9Om4F8eGaR8mmsWEmYUlza7rN+VEtbzWAdMu8Z4RNhyyAjxsIB4nqxStBnhJBXWhv8M3Kq53yILCLps49h0iS3xySCi22OJk0aM8JrImbEkelOxifTRgyKzd/eDXXS0eS3kfprAf5sHP/IxYQcPp+U4YmUuVafvdb6cNZeb0PYb2OChYMikRBlQmwyn/iNOCMfiMKZzLRi4Zw0Yoxgu8R6mzACbCKWKw87PZkU8++0XB0WOd+flXN9KRmZRKDNbBUsQpuwGBuXivyrhxrkc/c22vepY4iw8+fP3xD6WFtnu2BCUZS5QUWYoswTbiry3Llz0t7eLkuXmhHUQCM735eU//d3r8vRS2mJJmcmwhiYCaWwrM1rI9U/tTsiXc1Ejs9tEl4LnPBimo8psbgRXmOTRlCMJWR4NCMDIynpG0lL31BG+kY9MjDuMYLEiLC4eTXXNWEEGr5Tm5b45JvPNsmOVSHpaK7NFCgrBc9enZQfvhOVFz6Iy2iMMBceqTOiM+TPSFPEKy31PulqzEhPq0e6W3zSac7d0hCQxqagtDd6rZ8ZAWMRYuwiMBNBVgrEEfcfn78Tl9Pyw7cmjVhM2oCrM73X6KrGYEb+4OkG+b0nm/Of5KytCP2GhgZrCStchasoyu2FijBFmScSiYS1UgwODlorRUdHh31/PJqS4xfj8r//aFzOXWOFYm6AnS4MzM0Rjzy5w2+36tm1PmKtOwiJSpYQxAGfV2MtwdJz8PSknO4lnpnIZCxlBFYuVEKUTb6x/JjEasuYEV1YgVLmgswZrHAzms3G+lra6pXffigkD2yJ2HhdtWBsMi0fnxqXf343Lr88lLLX7TPXRBR8rzmn37yBwAr5s7ZcQsGc1TBnJfRIfdikkE+a6r3SYwTa9jVB2bx86hWYzJZi0ULncI5yIMQSqaxcH0vLu0cm5eVPErL/tMnnDEQYHTPnZe/Ibz4VkT9+tt76gnEPcci/fPmyFV/UM7bGUhGmKLcnlUSY71vf+taf5/9WFGWW4CiNlQIYGF3jGx5PGlGTkDePpWR0MjeYzwQG5kYjJO5Z55NNy4l9FTTi41ZxhVhAMI1MpKR3MCnnzXlPXUnI5YGUDAxzfiMKzPfCodJTWIRDOHgmKvtPJuXdU0k7rXZxIC1XhjLSOyIyOJ6VEXOJrNwz+syKLjbCJnMczqWGkEd2rArI8s6AtDb680efHUyLslrwxNW0nL+WtoLIky/LrJE5WO5YrTiZNIItxu4ExGTLSv9IRvqGzTUMpuWCuZa+4YwRbxlZ2ua3+SsGsRtNZMz3E3KhLylnriblVG9SrpryHB5NScycJMM0ozk/1jRXjJQn0538c2IyIaf70iZl8iI5951q4evkw9wu2bzMJ9tW4O9GZH9W1matbxivnFMtYYpy+8JimnJoq1WUGuIsYTjjFw6K+A4NGhEwGssakYCUmjn8GosTAzQJawmJv/GZmoympO96XI6ej8orH43Jf//1iPzFCyPyVz8bln/81bD8Yv+onL4StaE0GMRLgWgYNnm+aIQXsapiKa85vjdveSqdnMjgO/jG1xn9uaQjKC31UwswclEmK7fAogL2p1za6pfWSC7Qa6m8FCckTTLjlYmEV64ZUXZpCBGFGL0Z+qEQnPGHxlPy7uFx+f7rw/LXPx2S//yTYfn2i8PynVeH5c2D43LqctSKa3zlKPfCe5FGCCcQcrkVlFVcWkXGolm5ZoQkCwAA4YXAd9PfvCqKsvhQS5ii1BAsYSTiOGGd4BUu9Sfk6IWEHLyYsdN35bbImQo7mGc9ZsD3WF+osD9tjofVKylXBhLyyemovHYwKi9/HJd3T6bl8GW2vhEZmsQy5JGhCY9cGUIgeaWn1St1IZ+N23UL5p8492MtunAtZS1MfKNaSw5ipKfJIztW+uSR7XXS2VI+3ASCxa4qNMKRKVvMWli2yu1FydsBH/HWktI/nDTX7bF7TVabN87nN8JtSYtHnr8vIptXhK0zfzEjYyk5eSkuL3yQkGNXsjI4LjIe99jUPyZyoi8rxy6n5MTFhFwZTMroeEKSRiFxLwZGEnLyclxePRSXE1fSMml+Q2i2avNYCPlNmOtjB4HVXV7pajX1yihcRJcT/FjEmpqaKj5tK4qycFRqmyrCFKWGMBWJvw4CjOQ2W750LSfCTpvBO5XJ+TDNFGwerEqMm9F5ZCItV6+n5dTVlBy5mJKPTiXkwPmknLyalivDIsNGfDE1xxZJibRHoubv0ahIY0Skq9mkltygXghiAUd//Jr6hozQiXqsD1sZHXUDBCKiAdZ2e+WedQHZvjosDZHSTvmINSL4M9V37GJcTl1JymTMdEpGFOK7hbWn+JSIM0TU2ETK7sF5yQhMpkRhKpFD3hBsbfUiW5b75KnddbKknRAan74ZlwdTcuBsbvq4fzRrhBBiL1+GCRYj4PdFDK+MDJpy4pUpzyvmXpww4uzw+ZQcNGnQfAfBPFXZVYJ8LzWicXWnV1Z0Bu29sb5nRoQh+BFhLS0tKsIU5TZFpyMVZZ4pno4kUCspZASEfxatDqGBeGHF3VsnU/IPryfkb1+elG+/FJW/fzUuPzuQluO9HplM5E6CkaswOTHQO5QyojBpneyLwWpFjC9ii+1e7TfXkhMvU4FYIHEOViWuXUpYjPwJS8CUH/5drx2IyXdfm5T/6+UJ+Ze3J61YtXtcfjprFsq1i825lwSkLpQ7vp0KtH+Vh8+ZGuxu9coec13dLQG7M0AxnLd/JCune1l8kCvzW8rRFG2dXQzhkZGYRw5fEvmFKff/9pq5Fy9Nyj+8EpOffpSUC4MIxNkJMM7NhucQT9xaJi7+nKIoixcVYYpSY5zTND5XDuJVsSLPjKNVCZpKMOy6gZ1jxc1AnzbvIg7qgx4r9Pi81PDsfnvNiIwjl9JybThpA5GWYllnQPZuCMtGI8ZaIkyB5j+oAFaq9gavrOgKyMol4Yr7T14bSsiB05PywemEnOs3gmzCIwcupOTj0zE5dTEqMebhytDS4JOV5hw9rT67AGAqEC+I3xXm+3vWhmTfxoidki3Gbi01ykKGuBy9GK+YB3Dl6cobS1kqm7Pg2ff4YxaQ71gqt9KzrenWqWPn06cO+YqyeNHWqyg1hAERCwUiLJXKz5MZ8DvCNwo/rlrA4O6OxMpEBmsGfYQGYqzS4M9nrGy8fD0jxy8mpH/kZj4Laa73y7plITutuLyjuq6C61vZ4ZHlnT5pLRMtn7ziO0XctI9OxeVCf9oGeUUL9o9mbGytj07HbTT6csKPPR+72wOyptsrbY0VLraAiBEy21f4ZPvKgBGJQRvKohgscOdMvs72pexqSrYjmuro9l7kv8S9cHkuvEczhbIiD/Wm/nS1+m/4EiK+8AtjmgMHfRViirI40ZarKDUEAYYfGAKscMVaK5abTr80R7x25WAtYJBHeM2EdMYjwxMi7xyNytneRMmpPKxYTNk9sSNgQyRUM41KlPrNywgmm4vX5cRJIQSCZQXnictJ2X86aYO7Fl7Lmd60vHU8YX2tsEyVgry1mTLdstwjPTdjmJYFjdJS55GHN/EbvxFxuVAPxbAF0aHzaWuZY0UolLqGeYNyMS9Y/pYa0RkomN7FEsbCj8bGRhVhirJI0ZarKDUEqwTxwXCYxnHaUR8xg2hHULYb0dDegLN8LqTBQoGwYJudY5ezRgxlpH84bVcpFhMwQmp5Z0ju3xSUR7cyHcaUW/7DInzerHX437giKD2tn4695SD+1tHzMTl+JSV9Yzmnf/KDvEAXsZDgwmBW9h+blAt98dyPShAKemXj8pAsafeL30eo2FvBisSxKWtEIfnftjYi7c2l88bqzEsDcfn4TNw65i80tpw9Wdmz2iMbe7w54ZhXhIj84eFhW8cQ/SrCFGVxoi1XUWoI00MMiljBGCid3w7xrdob/XLPxqBsWMpm07lNtBdKhzGUo7kIt3DyKk76UYnGPh03zDnpb14Rkke2hkzevXZTaeJVISLdt/kZQWSXt/nsVF9T/acd3oH4Wazo/OBMwk75Jd3KxtyLLRNWE7Kq861jcTl1NWmEVOk4WwhEgtWu6vLLstacpa4wPwgwcygbGX/3moA8uDlorUmRcOm8Xb2ekk/OxOTctZSMRtlh4Ga+5hvyT5iQ7mafPLw5LOuXBm0dIk/UKaa7EWA45mMNUwd9RVmcqAhTlBrCYMiUJGIMIUa4CidsGuq88sj2iNy7MSQr2hENOV+uhYJTI6TOXInL24fHZXQiZf5dOkPLOoLy4JZ6eXqb3/p8RVPZnMgxX3fH6W7xy9YVQelqJoxCaaETN+qNxQBvH0/J5cGs9dMqnhVETOFO9/rxjBy5ktsgu1S2nEBc1xOSbatC1jJWmB986hFqD2wIymd2RmTfpvqSzvjA705cSsirB6NyfZx/z25V42xw+W8z9WXLsqA8tbdBNiwP5T40IMCoV9QzBJiKMEVZvKgIU5QagwDr7Oy0Iqyvr88OmsBUElNKu9eF5Lm9IVnSKhL0Lty0JMM2QmNw3CNHLot8cDImVwZyeS0F8b4e3dkon9sbkYc3eKXe6ALEi8v/8g6/7FwbsitBy3HuWlr2n2DrJCxxpb+HnnAC6MyVtLxzNGad9MvRYwTt5hUBG+SV1aLkiRWFKzt88uwuU9b7QrJxWW7KrpRYIVbZgdMT8sHppJzo9Vgr30JpGic264MZ2bvOJ8/fE5DOJq8VnI7x8XG5fv263TOyvr4+/66iKIsRFWGKUmOwUDQ0NFgxhm8Y28rkpo6wzBBwMyD3bAzJvjV+WdKG8/oCqTADeYoZ3XV1KCvvHM+FZWDPSaYAiyHmF1ONWPKe2hm2sba6mjw2dlZjOCvL2r2yZknAhlMohjUK47GMnLqSsmJnnO01y1w2v7Zl5RO52J+S944nZGA0ZbcHKkVbo0/WdvulvTG3cTe/I7Dp/RsD8uSOsGxZGZS2Jr855qfzxWrIa8NpeeuoufZLKbtqlEv/9DfnHivATF2oC2Rl63Kf7FsXkB2rg1Ifzm0XhainLlGnAAFGQGBFURYvKsIUpcYw2DNF5AZJrBZYLxyNEa+s6/HLc3uCNmRCwJtbHbhQcO7JeFbeOJqS90/G5VJ/zAie8sJw/bKwfO6+RvnyA0G7qXQkILKsJSsr2j3S2ewrGZYCp3+c/w9fTMnHZ5PWUlXpmvmMIKW9Q2l5/5TJ0zUjZl1o/CIoz2UdPtnUJdJRL9IU8cjT233yxXuC8uiOiA21UW66bmwyI6d7k/Krgyk5fy1Tcnp0PqC0EX+cu71R5OmdQdm3PiStTcEb5YmP4eDgoBVjbW1tdgEIQl9RlMWLblukKHME018MkggwRAAO+1jJ+Ds3NemTlBl54/G03Zuw2u135gaP3Q6JFZOTsawZ/P0SCXpLWrWA6TGc71sbPEZ8eWXTUiOCloeku630ysPRibT8+uNxG/+rbyQnwCpdJp+RmLFEg4T9Rng0+KSnPbcXZzFY2hLJtCxr88rONQF5eHudrOzKbfFTCix945MpeftYVH7+flTOGQHGIoGFKfub17u+xysPbwnIg1vrTFnmnPEBHzDqESkSidhtiqhP5cSloii3D5UellSEKcocgeAiYcFgRRuvWMYQZ8SoCrN5thljvZK1QUqj8azd3HsqgTJX4IxOnKxxI8LYT7Ih7JGWhpw/UvFYT/4Rkc11Hulu8ciSNr90GQHGe8VE4xm5NJCQF9+flNNX0xJN5o431TW6cyKw4smMtBsRtqzdZ4VJcYwv/hUy+myp+Zwp0TU9IRsWpBTEHmMRwuHzMXntcFzeO5G0e2rCQmgarGDEje1sFNm3PmhXoa5dGpb6fFmysAPxNTo6aoUXccGwsqoAU5TFQSURptORijKHMGguXbrUNsL+/v5bVkvCiu6QPLC9Xvau8cqSFvPGAo6r6Br2Orw4IPLzD2Ly4amYESvJsgFToaXRCJ6ldbJhZb20N5e2Ug2PJ+XM1YSc7BW7NdF0iRthevyqyKELCTl7JWoFWTGsjFy/LCLb1tTbV/5dDrZputifkBfenZC3jyWkbzwn9BZK01AdQgGRzcs9sm9jULavrZcIe0/Zz7JWwI+NjVkhxoIPHPIVRbkzUEuYoswDLpwAgykWDIK6An8z49RU57FO4tdHUhJL5ra+WRBRYM7JFCAbV08mjICayEpDxCvhgKfs1GQl8F86dDYmrxyIylHCTRhBxfQiss5Ju+LrRJQgs+zn/G0SG28HfFkJmwfKlT2swMRZfXr5QUwOjyXlg1NReenDmLx/NiPDUSOUjfq0Wz3lvzefcG1tdVnZvNQrz+yNyNaVIWlpyEXzJz+srL1y5YqtJwgw/MA0MKuiLC7UEqYoCwx+PEwjuRVuiDEsHFif6oygWL8sJHvWB2XXGr/Uo888pWNjzTVWiJjzRo0gPH01JW8eTcgbh6Jy7EJMhkfZlHz6mUJQMLW2tscra7uw+HmlNWKu25814gf/sFwCXr3mPUJ3sBl5R6PX+pyt6/baoKtBG3/MfHea2UDgDoym5aOzcXnbXNMHp5LSP4aVKSeC51uAkX2S31znKlMm92IBWx2SrpZAbvrXfMYqSOoJQgzR3tTUZMW8oih3DmoJU5R5AEsGCSsGIgz/HhfGgvfxc2qp80pDncjBC0kZmcSKVJ3v1FzAeZkGHBpPy+krCclm0tLRkJt+DExj80uujam1nla/LG/NSleTVxrDXgn600aFEPA1L0cwv5nv+owII8xEfVCkvckvazr9dgXm7lUeuW9zSHauq5N2I8wIwsqxq2VkPCMnLiXlR2/HjRBL2Z0CEDtYwBYCBDYCvDGUlUe3h+Rz99RJV2vI7onpYFUtqyFZCYmAZ2pbUZTFRyVLmCcajdILKooyx+Dfg1WDPf+wcDC1xOCKGINEKiMDw0l5/cCk/OJAQt4/k16wkAngOgaEUXezV9Yv8ckjW4Oyc21YVnVXH58KK1QsnpHJeFqiCfaONP+Opex0JxY3rjtr3bwQYlkbkgExEjZCqz7klYgRbVaYmVcc/5kaZUauGhFGINZTl6Ky/2TSxicjDMWY6fIImTENDVdT0J2IsLYGjzy3JyAPbw3LttVh68fGFCsLOBDp+IBhOWUaEkuYWsEUZXHi3E9KoSJMUeYZBldE2OTkpJ1iam1ttQMsogKn86v9cfnJ+zH52YcxG7oCgbJQFhuw/mnmlT0jt63w2vhVu9cZIdbF1CkrQKevZhAXbHtESpn/FC5W8JmL5ZisGLS+UdNUSxyKY/YNp+TMFSNmT8VtbLLTvWlzPq+9loUUYETk72zy2BhxX30kYjchx8IICDDTJ8vAwICtEwh06kilJ2lFUW5vVIQpym0G/j4XL160ISsQYVjFCi0dH50Yl5c+nJAffZSxcbuwiC00CKbxZFaWNWflvrV++fpTDbK6O2S3YrqdwG9tPJqUX5ry+8n+STlw2WNjgGFZsxa0/PcWAleGj2/2yZfvD8kDWxpv2eycqeqRkREZGhqS9vZ26enpyX+iKMpipZIIW8Dna0W5e8G/hwEWH7Fr165ZqxhWEMeaJWF5YleDPLLBJ8tbc6slFxqsR2GfR2IJkWvjWRvYtcCAddvBysfeYaZTc9H3mdZdSAGGBYwed88qjzy8JSy71tXZVZ6AJZCtrdw0ZHd3tw3IqijKnY2KMEVZALB64Q+GBQwYfJmGctNyLY1+2bQiLI9vD8mW5X5pCOZ8mBZS8yBi2JcxlfHIWCwnKorFIfG2JmL4fxGBnmnG/Ac1Bof+eCJjN/bG56wQ/sUULj5noyafrDW0ISgWUIFRDgF/VnqaRR7eHJLda4PS3UpEfI+95whwLGAIMayjTEFWenpWFOXOQEWYoiwgWDu6urrsSjgGYXylnBBrrPfJE3sb5f5NQVnSks3F15ojUVMtuUUCHpPP0l2H3SNyJC3XR1MyGUuZ781NhtnMe3QyKX1DKSvEikmZgmJ1aSab2/x6QQWYSRRDh9HbO5d75dl9DbJh+U2Bxf1merq3t9daRpcvX64rIRXlLkF9whRlAWEAZsUkIoyBmEGYaUoCu9rB24zeRy9E5Z0jUfnVwYRcuW4G7NTCrZhETLTXZ2XHKp/8yedb7P6MrGZEPF4eSMixi3HZfzJlNwBvqvfKsraAtDflVgK2twSlMeQ11ybmN14jjHC6z4nLnFTJkckinnIXmDbHxaIWS3hkZDwlw2MmRT1yaSAlVwaT1tK1occn+9YFZNOqOruCEqHKissfvz0m//TmuFwZ8lqr3UIIMfLiMXoVS+aDmwPy5C6sYPVWYLt7yGpZEtZRLGCk6S5GUBTl9kUd8xXlNgYBw3ZGrIjDHwgRxt6ACDEYGU/K2atxefHDqHx0JiUXBk2TRaTk/j+vIMJ2rvTKE9uD8ty9jdLW5Lci6fpoUt47EZPXD8flyIWUnSIkvER3qz8nwBpFOlsDdq/JuhABan1GiCHGcpH4C0VlMkXYCmKIEassa/eeHIuKOYc5DyJs0iO9Q2m7+pFwFys6vVaEff6eevN38Maeke8cGZeffzAub5/I2rhrMN/ahs613giwrcu88vSeiDyyLSJNDYEbwhXhjQBjKrqjo8NOT6sVTFHuLFSEKcoigBVxJKxjBOhk1aRjPJqWw2cm5IUPYvLrg0lJEMjV/G8hLGJffqBOvvJInSxt91sBNTaZlg9PjMsP3onLy4dTUscqxMJ8mb8RP0FvRsLE+zIirLWeGGAikZBHmswfWMYcE9GkjE8m7EbfE3Fz7SaNmm4qlvJafzRLQa8VT4u0NXrkjz4TlIe21snqJbkO7+pgXD48FZX/+quoXDLCNW1+O9+rI72erN0T9OuPhGXfpois7InkPxHr/8UUJLCjAlPTKsAU5c6jkgjTiPmKcpvAdBTxoAhTwN9YwpieZGqKeFkNYZ/RHjhxp2VonCm3nBaZD+sO02qRoEe2rQzIQ1tCsn110AgwhFPW5CUlv/w4IUcupY0g4zpyvmPkyybzLZdHRFTciiuPnVYcHPdI30hWrg5l5Mr1XLo6nJFrYyLXzWcj5jsTCY8k0ziwcyz+V3Bsk8iF3Ucy65GuVr+s6ckJGYQdFqdRk7/xWM4aZn9jP507yKe7L2u7vfLQ5oA8uK1OetpxxM+JTSyfrIjFEoYAY1Nut3uCoih3FpXi/N18/FQUZUFBdDENSYBO9pVkxSSr5rCMISbamgOybVVIHtwcktVdXmkI3Rzw5xLOETDnb2/yyr0bgrJhacD6XmFVspuOj2Xk5FWmCk0+zXu3CDCX7HE81hoVM4Jq1Iiw65Me6Tdi8ooRXZeG0jdS72hWBieMSIt5ZNwIsHjK+YjhQ1Z0XJPIRyqTlRNX03JxIG1XZ2YyWNm80tMakL3rgzbaf0Moa/M25+VlEoY9tnnavsovD2wKyrLOoI32bz83BYr4YuqZlZCIMF4R3Iqi3F1oq1eU2wimo5YsWWL/vnr1qrWYMGg7VnQF5cGtEdm31itLbs5WzhmcGT+w+rDHCD+/PLIjLGuX3Jwym4hlrSXr2khaxuNTyxtEk9Fz00oIp6kwmlX6R3OWNFZnskoTEIv3bIzIrtWmXOdxhWnYFNGW5R65f2NA9myos5u0A/cSXzCsYFg8mYIkVImiKHcnKsIU5TakMHQFFjEH025N9QHr+7R3XVCWNM+dsOCYJITT+m6vPLLJJ+0NuSk+R+/1hBw7H7XWJ7BWMPvX/EH+IJbK2vycvRK12z8B07h1Eb9sWRm0ezQ21eW+jLCcCzhuUzgrG5d45ak99bJpZcROLbtpRlbCXr582YqxpUuX3lh8oSjK3YmKMEW5DWGVHKEKnNXEbebMYB4JemXd0pCdZtu9xm8d3KHWQozDoR0aQ1lZt8QnO9cEpIFpyAKVhdXpzNWkxBK5kztBNJ9wSndeVkyevJy0ITKA94N+ryzvDMq2VUHpaPJIyJcXmPYbtYFjkfzerKzu8sn9G4OyY01YOlsC9p4BU5DsGYpDPuKL+4tAUxTl7kVFmKLchjBwM1CzShK/MKYmGbwB6059xC971kfk8/fVSbsRFsTbwgpTS2EB+N53N2dlbY9fVi+tk5ARgIUMTXjk/KBHEqkFUF8FoHPYG3JgJCtHL6Vt6IpCGur8stQIseWtIs2RWpdSTtRRAoSj2Eu4jPvrjODzG1F2s1wIxssWVewJiQBTFEVREaYotyk4auO0TeJvwldgEXMQa2tVd1B++6GwbF/tt9NxOKTX2iKGjEDk5A06FoKhXh6ImZS0jvlEqF9IyBp6h7AWOPsTR2ysIJK+z4hUBGWhFa/WNEU88ty+sNyzISTNdblYYMAUJKEo8AFjqTpO+JVWSymKcvegIkxRblOwhuGo74QYgzjJOevbFZONfnlgc1j2rQvKig5URu38nZAQaKtoQmRoPCNDo7lpPvythsZScuBsQs70pqxDvrMELSSIRKMNbfgO8na+LynReM5JnzhrgyNJI8yykmAj7RrCtXc0eGT7Sr8QvmPd0qC1GNr8pFI2ECtWMMAC5kKPKIqiaE+gKLc5hKxgWhLhhSUMvyJCWABxp5a0h+XhzUF5bjfBU0XyPumzBhGRkayN2XWmNyEnL0aNiEnL6GTKCJy4/OrjpBy/nM4JMPNd0u3A6GRGXvooLvtPxGRgNGE3E780kJSDZ+JyYTAjo/H8F2sAehfRu3mZVz6/LyCbV0aktfHm6lEEGAsruF/uPqoVTFEUh0bMV5RFAIM4VjC2uMHBu7u7+5YtbthX8dSVhN0r8fCFtFwbrd3UG/5mPc1eWdnhl2WdAUmZvPTjAH81K8MTWWtpul0EGJ0ZecE/bFmHx+TZK011Phkez8jlwbRJGYkmsdzlYo7NBvajRE/tWO6Rp3eF5dEdYelozgVkdVtRsboV4YwfGCKsUuRsRVHuTHTbIkW5Q2B/SQZ2pieZ2iK51Xcj42l5/dC4vHYobveYnEwS5NQ0cvvp7KCTMLpGWuq9RhBmZDJhREbaaz+4XQRYIVw3WwYFvFmJBNmD0iMxUx61yivWP685dlezR76wLyQPbQ3LphVhO82IAGMRBVOQrGzl/hD7DV8wRVHuPiqJMJ2OVJRFBKKLjZ5x0mdakgHfBXOtj3jl4a0RuW9DQFa256LX5z+aNRwHX6prYxkZmuRv7w2H/duRnBXQI8mMV4aiXiMac4K0FsXBMThWd6PI3lVeeXx3vaxdlls8AVgtmYbs6+uzU4/Lly/XeGCKopRERZiiLCIY1JmG7OzstAKMgZ7Vd+AzyqO+zi/b14TkM7sisrydablc6IrZgthC2NgO4zYVXuUgzzbvJs02607U1gUzsm2VXx435dzZ6LfbOjmYNsYKRsBdRHNhsFZFUZRCVIQpyiICawtWFQZ4BBnTXVhdEGKM8y4w6Z71IdlpREJ3C8ojt3pxNloMCcHxbcq9tWi4ke9aZNwcIxLIRcTfvTZkhFjYWiAReIhi7gU+e/zNptxMG6sAUxSlHCrCFGWRgRBjcMfRm1emJrG+OAjkuqo7LE/vCMmWZT7xE8jVvF+rqcm7GeKNtTeIPLszJPesD0pbU/BGPDDCUeCvhyBmP0gsljoNqShKJVSEKcoiBQHGYI8oQwDgDI5/GJIgHPRaP6V7N4bk/vU+aTBaABFWi6nJuw3Kjf3ASWu7vfKEEWDb10ekoyV4w7rGSkiEMP5gOOFyX3RLIkVRpkJFmKIsUghPgbWlvr7eDv446iPGXCDX1uaAbFsdkoe2hGVlp9fuMYmgUB02PSgvFjngiL9zdUAe3hySFZ0hqY/4bFk7R3xEGJYvxDFCzDnqK4qilEN7CUVZxOAXRgBQhAD7S7po+o6V3WF5eEe93LvBJ0vb8m8q06YuKLJnjVceMgJsx7p6iYRzXSdljQWSWGCIMPzAEMWKoijVoCJMURY5OH7jqM+KyUuXLtlYYg4cxpvrfPLYznq5f2NIVrRlbbyvAp2mVIDp29ZIVrYs9chndkdkw/KgXYWan4W0AuzChQvWD4wAuljC1BFfUZRqURGmKHcATEsSDgGLGFYZt1UO4B+2cVlY9q4Lyu41fmmK5MSZ6rDyuLIJ+kRWd/vkvo1B2b6KiPg3tyRiFSRTwAgxArG6cBSKoijVoiJMUe4QsMIQGBQuXrxoxQFgmAn6PbJ9TVie3VsnS1pFAr6sZDIqxMqBpZBya45kZI8Rr0/vq5fmBv8tVi5Wpfb29srSpUvttkTqA6YoynTRXkNR7hAQAc5RH1+x/v5+axFz1IV8srInKJ+7JyLbV/prErz0TsXnzUpbvchTu0PWgtjSEBBfPhQFU48EycX/zsUCc3t4KoqiTAcVYYpyh4CVBjGACCOGGI7iTE260BUBv0faGvxy36awte6wuTVCjNALyk0ojrZ6j2xe7pMHNoVk3ZKgndL1mvJl9SkrIdlInfJGhDEVqVYwRVFmgvYcinKHgQhjxST+SfgtFfqHBQNeWdYZkgc3B+WJ7T7x+UWSuY8UAwKMadqNS3zy2d0h2bIyIi2Nn/YDIyI+YSjUD0xRlNmgIkxR7jCw0OAf1tPTY6clXUR9t8ckFp1lnUF5aEudPLPTL+u6PDeCkZLuxoCuXDPXXmf01oMb2Ag9KFtXh6Qu7LW+YYguBBiWRV5ZiYoA05WQiqLMBk80Gr0Lu1xFuTsYHBy0W+m41ZNMUzrhMB5Ny4FTE/LWsaR8cCYlQ+MZmYiJJNI5x/S7AYrC7xMJmdRS75GVHT55bLtfdq0NyZoluYCrTOUiYJmCZCqS91w4CkVRlKnAal4OFWGKcgfDNCSbfF++fNn6L3V1dVkRgRBDaKUzWTlzJSYfn4rKO0fjcrIvK72jHplM5VZP3umE/B5pComsaMvIfRsC8sDGkGxcGZbGer/4UWcGrGCU4blz52wZOgujWsEURakGFWGKcpfirDj4hbGaD/8lwikUruYbm0zL9bGk9A6mpHc4LddGsva91B3ssY+A8hsBFg4aERbxSk+rR5a0+s2rPyfAfJ4bImtkZMSWH+IVS6JOQyqKMh1UhCnKXYzbWgcxgUWH6PqEVSiO7o7FhynK8WhKxiYykr6jRZiIP+C1IiwS8hoh5jPC1HejPCgLrIgIV7fCtLW11ZYbVjBFUZRqURGmKIr1Z0JQ4KjPtFpHR8eNqUkHU5SItrulU+DKufxiyxbWQxYzEA8MfzpWm9KR6kpIRVGmi4owRVGsZQeLDuICQca/sewwxaabTt+cukWoUkaUFZ2nKx8EmE5DKooyXVSEKYpicVOTrPTDz4mpNToIAo46kUEqtpDdqTDtSJm46UdEGCEoeKU8sBbqFKSiKLNBRZiiKDew0415qw9+Yky5IcqcnxhO+8X+YncqRMBHlDrxBUuWLLH+X1jA7hYxqijK3KEiTFGUT4H1BwGCsz4O6Fh7sAaR+OxuwFn9uHaEKeADRqep+0EqilILVIQpilIViDIEGRYiJ0ruZJhyRGzRSSLGFEVRao2KMEVRqsaJr7tBhLmpRp1yVBRlrlARpiiKoiiKsgBUEmFqf1cURVEURVkAVIQpiqIoiqIsACrCFEVRFEVRFgD1CasRODG75f2sLOPVOTYzH0wwTGX2uKCaheXMe8S1cjGuFEVRFOV2QR3z5xjEFkLAlKXd7oQAmAR+RCBAT0+PDQCpzA7KmPAJJMqZiO8kAm12dXVJd3e33RNRURRFUW4XVITVGAZ+NkEmyrjb/iU6OWnF1wjCwLyOmVfE2dp16+ThRx6Rffv25X+tVAOCa3Bw0EZzd3v5TeQ3nx4zr7w3Yv6+blIwEJDnPv952bVrlyxfvjx/BEVRFEVZeFSE1ZjTp0/LkcOH5ezZs1YkIL4mjUgYJxlxQARyRBiBIB948EH58pe/LE8+9VT+18pUIF4JGvrxxx/LBx98kBNepjzHxsZk2PxN+U5idUSIGRHc0Ngof/pnfyaPPvqorDOiV1EURVFuFzRERY05d+6c/PLll+UH3/++vGxePzRC4fjx43Ll8mUrFjLptASCQamrr89tjKyb/04LN7VLuf7Td78rL/z4x/Laq6/KgU8+kQsXLsjAwIAVvQTYpIybmpqsL5gG3FQURVEWEyrCZgAiIZV3CJe8830xyAEvokCFwbTBEuYSZZwp+JtXhxVdJnnYZDn/nqIoiqIsFlSEzQAGfx+b/gYCdsqRzX95Ze85tcbUDsoTC1cgX76FZazlrCiKoix2VIQpiqIoiqIsACrCFEVRlJqB2wAhelhQc/XqVenv77eLaRRF+TQqwhRFUZRpweplu1p5eFiuXbsmFy9elFOnTsnRo0fl0KFDdmXzO++8I++++66cPHnSfk9RlE+jIkxRFEWZFsRGJETPwYMH5Y033pAf/8u/yH/7r/9V/n//5/8p/5//9X+Vf/+//W/yn/7Df5C/+S//Rd40n2MRUxTl06gIUxRFUaqC1cnsUHHs2DH56QsvyHe/8x0rwN54/XU5cOCAnDp50obq6b92zVq/CCXDDhdu9xBFUW5FRZiiKIpSFYgw9mxFaH340Ufy3rvvysFPPpHTZ87I1d5eG7iaGH8INYLJsJpZUZTyaAtRFEVRpgWx+fw+n0QiEQmFw3brMELJ3BKuJ/9dRVHKoyJMURRFmREuZp/G7lOUmaEiTFEURVEUZQFQEaYoiqIoirIAqAhTbkuK94lUFEVRlDsNFWHKbYmKMEVRFOVOR0WYoiiKoijKAuCJRqNqbpgmL7/8svz4Rz+Sg4cOSSwatcuyiyFODsu39917r3zhC1+Qxx9/PP9JeVwMHrYE4bVaWBJOHoLBYNm4PARMZD+3qeD35JtjVrPaCYsVcYEIxjiV5aqafALXzr5z3/vud+WHP/iBzTfHLvWbuCmr1tZW+cY3viH3P/CALF++3AaJZEuVifFxG7dooiBgJOeuq6uT9vZ2aWhslMZ8CoVCNn/zAfngmsgbkcdHzSv7642YvwlumTHXSjmFTF65F61tbbn8NjRIc3Oz1NfXT1mGcwH3mrrJ/aZMuQbuFYm9AanzKZMoa75L/fEHAjavlG84HM6FMSCcgUm8x/VxPVzvbFbXuXpInsiLzZvJC3kaM/WAf5Mv3iO/1CdXH8lXc0uLzQt1o8X8TZ7I33xDHilb6jCJdjA4MCATlK8pewjk60WjqQ/UjVaTX+oydYM6Mpt6QTmSB+5zKSg3Pv/Fz38uL7zwgvRevWrLs9Q5eb/e5OeRRx6Rzzz5pOzZs8cefyZw/On0S1NBGdttl0z5Xiddv27boqvTXnMO7j/1gPrQYvoY+7oAdcO1O/JMnzFu6vOQye+QqR+8x2dpk2f6DUqGMrJ1xNRr6nOTqRf0ceSbut7U1DTreqJMD8q9HCrCZsBciTA6t8uXL8uA6XTpEOhsynU3hTetu7vbig8aVqm80HGyr9uZ06crDnY0dmL+rF+/3gqbShUHOC6dwJkzZ2znQP5L5Zm8Zs2x6Qw6Oztl6dKlFTsxOsFqRVjClHOz6VR+40tfki1bt9q/L1+5ItcHB+0gNmhex0xZMojRUXHeRvOdJT09tmNtM4NYt/m7y+SrvaPDdlqzFQSloGytIDAdPx3+gBFdbOUyYPJHHq+aPHPfx83nfJdOlLxyT7u6umTJkiV2AOgweew0/+40r+S/FgKmGMoaoegGY16tuGHgQtiacnWDAddEGjX55nsIBb6bMb8nlhSiizrlxBaCjGujblHWDeY97kHE/M2/qXd8l++VgrxRP5zgIsVNiprkBK0V4OZ+J0x+yJOL3B7L/5v8Uh99Jm9WlJs8OJHLYEV5kzrMe06czeWg64QtZYrg6uvrk75r12wdYV9G6gnXRN6BvNSbsuL+u7zaemz6Aepym3kfUUa+p1MvuOcI2AsXLthgrLS34t8z0HOPP/roI3l//35bl8uJMI5HHrZt3y47d+6UdaZfsSLMHGM6cM6wueY1a9fa+kE9mS7UG+oK/RV1hPLt7e2Va5S1SZQz7ZD7wPVxPWGTd1cf6Lc6TOJvypl2iJiZq7pBOdn8mjY2bPKLWORBjT6C+kye+Td1nnrBwwW/4X5Rr10doa+jzEhOpHMd5J+/nSCjHdS6z1NuoiKsxsyVCKOB/eD737ed2/nz521jKtcwGEScMPnc88/Ll7/8ZdtBFA9efIfG+V/++q/l7/72b21D5LilSJhG32oGnm9+85uyZ+9e6TEdeiW4xsuXLsk//OM/ymFTFgwgpfJMXhloEEk8FT/72c/aTqEc0xFhXBsdzoaNGwlaZAUXAoxBGdFVDMcB8sjxgua3dEj33HOPPPDAA7J5yxbbMWGpqSV0lHTyH3zwgb2/hw8fth0r5eKeYD8F5ZjPL5Bf6hT55f7cY+rWdjPAcU9L1cGZwuDJoM8gxUMB1g7qI4OztcqYgcx2/KZ8KU9bx/LXQLm6Mgb+7eoD77rv8LRuRZApZ6wliIhVq1fL4489Zu8lg14pOCdihfycNg8VFxEMRsCSVwQsdYV6WZg3lyf3dzEuvy5f1Kdly5bZuvDAgw/KRpOfqdrCbGAw5SGJza6PmnpBOVN/EbIOm8N8Pk1GbTm6QZdEfcUqtnLlSnno4Ydl965dVrRQZ0pdcykoO/aD/Ocf/lB+/uKLtq55TXl8CpMPyphEXZkK6ib9EhZQfnuzdlQHAoP+4qtf+5ptp1zjdOD+UlbUGdrd/vfes+WNAOMhzvWlxeVUWC9IlCV1Y+WqVbJt2zbZZ/KyYcOGOakbtC82RWcrqI8+/DC3CbrpLxCJXAu4/Lp8FlL4GW0Tyx75514gunjoWG/yTj+CQKa9lXvwUWZPJRHm+9a3vvXn+b+VKsHyc+L4cfv0VO4pkIZCx7jUdOZ04qvNAFMJBuijR4/KS7/4hbVYMQjyRMZTfnFC+GGFMC1M9uzbJ/fdd5+1XtFBlMoLDZFNdF9//XVrnSh3XJ66aKwcE8sLYqQSdMCYxNm65ILp4DDr22ObDqTwuHTuPGFjVVixYoUdZCs9zVJ2/OaI6TCPmTKhjKG4k3RwfZwH4UZHxbnouNN0rvkO1n3PdkrmPT4j/3yPc/F0yUDO7xl4uPZaTH1QFpeMUH3//ffl17/61Y0BADHDecmH7VRNvty5eLV5zueXfLr8OqsJ19pnxBF55p5y72diIXAwoFKfKe/3TB7feecde1+xePDe+XPnrPUAAcT5yUcqny/y78q2VLLl7a4h/zf3lHNyHO4X4pmyQogxICAsS8F9PmfqGvWZ8kQ0YEWkPBCHlGlx3grzB8V5syn/N7+jDtsyvn7d3juumXqEVaRWFgPKgDZ+yDy8sO/ia6+9Zuu7tXqZskia8nH5tphXd97ivHOd1GPKhmNeM3XCWUmclaMakc794EHwQ/OgcOCTT+xxKUvXjl2y5ZsXudXAtXJsfsv9KT5epURfx32ljiN86E8rPcAVQ52iXtv+z5TxO2+/bcU7/S31jrxxb+FT7c/gytnW2XzdIE+0X8Q/dYRro5zp70v1v9XCuShXxCIPaq/8+tfygXk9ne8vbL9m8mDrRT7PhRTn2+X9Rj3hGrgPpkyoJ+SfKcse09fzEFTrB0/lJpXan4qwGVBLEeYayokTJ+Ttt96yjY8GggDguDSswgQ0JpQ1T2Rf/OIXZdfu3fbJplwHwDkYUD8wQoCnWypE8XFJHLfOfH7f/fdbSwCDTiX4PgMUAzVlwcBVKt9AHpjyW71mjWzctKlmIoz3ODbnpnPht9bKUpDIT2Eq/Izfc3xEGAMg0ys+8x3nQ+HKaibQaSKSEGBvmEGAAeCcEQ1YbIBjF+aR8xSncvlFdGCh6jPHt/XB3DeEy0wHAvJ66OBBecfUkzfffFMOmifw46aOMyAwoJNnBhvKujhPhYnPSqVy3wXuGfeOqcsdO3bY6epyIox6wUMKbYXy5GGE3zIolSqvwnOVS6W+i9CgblsRZuoGoghLE+1nqmn6Srj2jtihD0GAvWWuhfLmAYBBnvO7usHfhfWhMBXnneNGqXNMVZn2yDQWeSXR3vgOvysH9Yr6Tz2gP2Ia2f2mVKqWUr+tNgHXRb+0a9cuWW4e4qoRYfyGuoIlF2vSL19+2Vqh2eMSUcfn1ba/wnLmb+ob/QXHRoRxHkQYdYPE72YCdY4HCkTwa6++ah+GsIriAmAqjj0/W0VNlefCVJh3lwBfWvoOrHibTH9cahZFqR3UtXLMXLYrNcEJCDo+nuwZDF0DKwXfZzBct26dPPvcc7J3376yUzfThadNpogqnb8crtEvBJzXdTAzyTe/o5EwkDPA/9o8gf7spz+1fheU9UxhOuFV05n+0/e+J++bDhUh48413Xw6XH6ZxqMukMcXfvIT6yiNaKUuzQR8pqwFzAgbjoNI4KkZYcS5ikVBrWEAQPg6X5WpsGUQClnROZvyLIe7TwhyhChWCQbys2YQnw2uvSMImG5/+aWXrJURCst4JvA7VzcQ6R+bh6P/8d//uxV6zndrscE12WSuy1S8/LtTQ7vlAYj7RhlQFpSJ2+OScpoprm4AIunVV16RH/3zP8tB04cjpBB404XfIPpfMceiLdMW6S+4dvLMOWvV7mwfYo5rH9xaWuzDhbseZf6pbc+lTBumAPfv32+nJTCR0xjLNTYsHjRG5vLxVXnQJJ4Ka9mA7Lln2NjnYnCeL1zeGSSxInzyySd28DqXHyCnA0/GTC3zNPuKEdbW98R0zsB5alFOhcfhfNSfF1980Vow6MynC9NxOLKTT+oZ5QDuPLXIczk4F1YXBgQWb1T1RF6Qr7nKG8dlEKRNYvmgnb5vxBNToFhDpgvlihhCGLzx2mty7Ngxa8nj+JynFtfijkHiXuKzieDDEkv/MpuHioVkOqXCgyzi6KcvvGAtpliXKIvCspktHIN7Rt3lHvLg8u4778iHH35ozz9dsKrhE0h+6XMKrf+1yG8h5JljYul3jvlci7IwaMkvIAyeTB3Q8Jj3Z76/XKOj4WClYu4eH7B7C/zAlFuhrMqlSlDuCFosFQxe3BdEjZu+qAY6e6xI+H7RKR81Ay3vuUG2FC5vnIOBujBVyjPH47gIc/w7OCdTn3To1ebXQc6sJdQkrA6V8ltruEZWvzEFycBQa98UV76l0lRQBpQvgyJTyYcOHLCCl4G2mt8Xgo8W7RzrKCIfH0qoZOXgHKXqBe9VOj/3j8SKUOfqwOBufUmrxJVRcZoppY5VVcr/thooF1wjmN7FB4xrp5915VEOjl9czq6My53b1Q0+x1/y448/lrfffNO2f9p8tXAeXFx46MMFgFA19EOV2mCp/BYmPiuXf/7NsWlviDCmqiuVjTK3aMkvIHQW+CsweOKPhJm8VKOj0TAItJhGwwrDp595xq7KUUpT2EHhy0PZFXZKU+EGXaxZrPpkWrHaThUrFB0/U8t0rPhwVNOZkk/OgQB0CWuLy3slOD4LKhhgf/XLX9oVYBxrqt/dLmCFY2oEqy4DQq2nRgrrQ6lBaiq4d+4enr9wwfptMrXFvZkObqobgcDvy7V3B3mzdTiZc6YurBe8x2eV8s+xOQc+bdRl8o2PW7W4citM1ZRXKUodq9qEmwCv5iD5o5WG71Dvqf+/NO2AqXruUSWRC/yuVDlzrE8tkCiBK2cWJ2FxPDkNa7TLM/6Bb7/9tv2bPmMq+B15K8yvS4hOV0fK5Z821tbebtscPoMqwhYOLfkFgEbBgIkfGFNWNFgaSamOwjUgTMY7du6UJ596yq4wrOTYfjdCOdHhkuhgXHyfFcuX28URdDhYWGznZTqnqTpVwHmVpeH4Z2ANqwTH47isvMICxgBAR1hJgLl7izVz1apVdsn7U0Zgf/a55+SZZ5+VRx59VNasWWPvvRNj5fLNeficqRc6dPLN+eca8uPKnutnyT/lxrlvJAYz8z7fcQKoEI7BQMCTOVORtRwQ7ABp7jvthelOYqx1EecpvwLT1YlKZQsch3whaPDhwqrEFGU1cO08ZPHA5aarOF65ekE++A0WSRbc0O4JcfOcqRekR0292Lptm7WKIzAqiTF3DgZnQuowleqmQMuBRZRzu2suTOXyXA3Fx6o2mZPaPPFaCcTHkSNH7MrOU6b+2zI0vyuVZ1dv+Q4PADj80/4IKuvKGZcPfG+pm+775eAc3AFWtrIACkFWDYguHvLwX2NRBZQrY5cH2hF1mQVfBKhmTHB5JtF3PPrYY3bBFgvC+C73k7ZJQpgB9Z94crS52dxXZXbo6sgZMNvVkXSIdOKYy996803bEdAIihuC61jpBAh0+JhpWA8//PCN8AnVwnFYHclUFat3yv2WzpwAf0x1skJtKgdpvo+ALFwdWe46KA8WENR6daSDsqZcOAerRgl1wLkQMVwL79PhuEGLGGLkq9IxeQKn0yI/BJysVO6uLHiaRVgz1cTvS9UNd1/JM/lau3atjdXD6q+dJm3ZvNn6/RGAFzFJB0oZ0GGTFyjON//muJQbgU/JK/GUuN/VwMDMfUTE2dW5ZQYvh7unfIf4T/h0sYKN6USbTN1xf3OvqcNcrysPfk+i3Li2lWYQJOYZU+yV8kwZWKF54oQd6LgfpfLJsTkXAyxtj/pAeZAoV0KwINLxQSNfrEokL/yu3HXzPufnOwTs5N6xkGAqEPBYZ1h1ikAgX+XqkTs/9518EquMxTfUD8qHvmSZeZ/zOlcE6mil+mzfM59xj7lm2gf3pTgP3E/aMOEQEM+ujLhOlxCvCEPuuS2zfH0sBfnhHNRFF1C68FjVJq51uelHEaPlVm1z71ip+KrpUxFBxI9zU3rFkC+XN46N0Nq+Y4eN6E8Zb9261ZYz/QZ5RwDavqBC+yuE1Yz8lrpcrn46EORYKZmeZgFIYRspxOWZz5eYY7Oikf6CMiF0h8szifMiKln5yPURsJU2SH1h2h/LM9a2tea6+S3to1IeldlTybqvwVpnwGyCtdKIESzf//73rQAjZhSm7OKGR4PjuzQ6hNxXf+d3bCeBFaxUIy2HO87/8R//o/zlX/yFXQnDMUuBxYJI7H/2P//Pss90/FMFIaRTwgH223/zN9aqh+MveStu0Jyf8qCjeOIzn5EvfPGLtiMvB4My0zXVBmul/IkUTqdEGdG58JRHp+PywjEZhJiSQfwiOBi8WHlUDtvxmVc61P/bn/2ZPX65fDPQ8hT+g3/6J7vijZV75QZaBgw+wyLzxBNPyGOmbjDgEbPHWSCAayPf+BG9Z/L985/9zIaLgHIdNcdm4OQp+I/++I/toFVNfSHcxbe//W07gLHjQKWpMnce7j9ii8jyWJjo8JnecGLXQRvBHwrLEfknuUC1rMDkGrFA/MaXvyz3mvbCwFcOBCJ5/MlPfmLvY7lBy7Ud2ssffPObdmBi8C68Jq6DwL7HjaAjQCkPRqwSLVWHHeQVAUMYl89//vPy8COP5D8pDfnAyvEPf//31u3gwsWLFcuW4zNgEjj4IXPs3eY+cj77m/x12nphyg3fIY5JjDHEHcKpXGfPbyhv2t+XvvQlWz+KH7Lcd3iYwKJj81iUT/cdHjR+9atf2UUs5LnUPaCOcC30JQ8/+qjsNEKH96Y74HCfuC7qFn1qqYUbtG360r/6z//ZTgcibsrdR66BY1Jf6YsIeszDGuco/A3fQ5Tib2kX2bzyil1k49pvKSgLFlt97Xd/V/7w3/wbe45y/S2wUIOV2JQl09TlLMHkBegnfsccm1Au9M/ko9R18n0SeaXvZczBz5U6TggM/Ebpd5566ikr8pW5hYfQcqglbAZUYwmjkVsBZQbwQksYlZ/VSvgM8TdPsMWNiN+SeI9ph8+YjpOOgqfJqlaOFcGx7lRLGJ9xTQyKJCxJlBMizFlgSHyHwYwBvqmlxZr+XdDbUp0Y8J7tcE3njDhtN4lrKIbv0JkyGDoxSode6phcG/eQAIlMGzDY8iROvpy1yCW+x3tsq9OEsDHHtIEizfE5dvHx3Xss8OCaNm/ebI9bzeKNai1h5J+yXLFypR3AGNSpL3v37rVWhE3mnFwP06suYX0iejvWPfKEVYeBGYGx3fxNfWAg4LdMsZUTEoAAmMoSRn0DyhChiwUZKwx1grwXJsoWcYZFDAHGgOsodf2uXSKWuSZ8M0t9z+Gc8X/xi1/YY9vtnMz3S+WZuswgS7ng90l5IqjJJ3WhsF5wT6nf1AvuMeehbkzVBt1vyDt/F36PvylP6hzWE8rEtpeCRFnRji6aAZ0pb+oNxy0+H7i6zn3nWrj3tqyLjjlV4r7xSr7KtSseBhEXiFLKgu+U+p4tZ3MPEOWIEEQ0AowtwQrLuLCc6QfJA3nHAZ9yps2XOz4Ps1irSIgwjlMOxC6rIhlT6EuxUBUf1907joVP8JPmgYV2RX6K81ycd9t/mPvMPUPE8rDKb7cZEYcQ5yGFz5S5pVKf9mn1oNSMwsZEo2VwQ1QwLUGj44mpuFOhwZF4n2kHtul4/Ikn1A+sDJjWESdM6TH4W4uSGbSKhTFlTMfEtBShPdjaBZM9v6e8y8HviNxttzkxHXApEAYII5z4sfLQCRZ3pMB5qAfs+bdlyxZrHWW6ic60nDAGBgB2GcBqtsWIcjpNjl8q37xvhdrAgN3/jwGpVri6yRQfwgqLyle+8hUbMJgHhfsRwUZUMdgyXeISAzAi7aGHHpJnjLjgd7/zta9Za8HXzOtvm2Pgf4Pwp+xqBWVBPWDRQqn7AQxSnBehhqWWAbdc2QKfcQ+dNQ8rAwNkOagXtHXuBdbSUqLRQV55SEEYIErJVznRwXuuPuMXhBBG2JebHuT7HJ8pOwKWEoOK6yiG73FOBvByifO6fJW+khyuDDkv3+feljpeNYlzlhPcXAcCF0s09Z1/F38P+C7v86DJNBwPEIho2lc5OCft01nxEUG0X85Rqo5wfPKLJR//O/qGSnC/yDNWzFJ5dnAu2h2WeAQj9bZa7DWbPgPLGW0TqzNtkAchRL6ysKgImydoZAzkdjsYk7CA0TEVQ2Mj8dTCptQM1LUenO526JAYuOiA3XRkqQ4V6MAYaOlQETalYHBlygnLDE+z5QZazsGxeBJloKVTrLYzpWNHZOIvxsDLOcoN/nTs7D3IUzvCv9a4QRrxWyx2pwPXTj2nPLBe8u/ZHK8YyoHyLndvHZQllham/bHwcX2VfkO5YwFiOtBZgspBnUGEkQ/EYCk4F9eNqwBW89179kzrgcvWZyOAsehUgnOQXyKlE00fa/Nih7LD+sdCGKxhiKNydYj7xL3lgQYfT9oT9bgaqCPUVR4kqK/l6hXtnnaBhQvhjd9cLeCa7KIQ08dgdb8T7p2SQ0XYPMDUF1OPLF8mQKPzcSocqPk3HQimcjpTVrzg34RJu5xlRZkZdMSY9q2DtinfSoIG+AxxRcLXpPi7PPWywgkxVs4S4TpsrHT4aTEAIDqqva90wgwYTK9ZoWDqRKlBADgmIh9/nbkQYeSYc8y2TvJ7yt5ZVsoNnjPGlE+5MiqGc7e2tFhhPFXZAoFt7f6G5rXUd3mPgbrfiDAXt62SOKAccFnAad6teqwW+gfyzcMa/nmcpzhP5Jv3rc+XEQjU5amsNIsB+kwsSdR1/Psoy3L1ks+sCDMPX7R92lO1dY5j8n0EGC4JlfpkxDZ5wgdrwvQX5LEcnN9OK5pjV6pzfI9xg36GILT4QyLI3FiiLF5UhM0RroHSALFIuN37MZuXaryuk8b3iJ3tmYKkU57KL0uZPpQzlgZM8XTGlSwf3Cs+Q0gjaLAkFHeqOJzz1ItPT7mOmWNwXueXgeXHnbfaxO+ZOukxv61kGSUH1Cemnpjy5rfK1OAHxb3BCb4che0aEYPQoqyL4T0sNFgtEAiI83J1w4oDcz+Z4uXeOnFefP/LJeoF/YRbTYi/Gu8XwzEJT4DvG3X5TrCm0OaY8qWcuSauu1w58z5liyWZaT3KrbAcp0oIYzcdyMNUqfPwHsclL1d7e+1DWyURRh/AMevN8fAX5Dyl4Lhc60B/vw32Sxw0fMnwjWRMoQ/iXHyn3DGU2xMVYXMEjYbGgO/FwU8+sfvO0Vh4gqYxFzdgOmk6CHxmcLzEl4aGrswdTEFhWaooaPL3icELSxeda/Ggyz1mIKDrqzTlRIdrl+nnnXV5jw66msQ5+T6/Y0Uir3T2pXB5RjAiBNxvlcowuOJTyHTSVOVFmTLglZuW4p5RVxgcbZ0x/y4H94tpcQQ6Dwccj+MX14FKid+wyIABnUUV5fJPPhBf1Nk7wRJG+TMVSTlPJUCwZPEQg7WQKdzpljPfpw3zW9qg6+OLoV1Sxnbj9zIi3UE7xvpJLC+mLivl34lGpjpZ5f2Pf//38nd/+7fyLz/6kd1Si0C8bnq80nGU2wsVYXMEDZSGSweBTwhbnpTq9GgsfI+GiOMnDuM459JhuMFUmRsYtKZajQfco5S5d0w9cQ8LO1X+psNFoJkvlr1nrsMmhhAOxD9/8UW7NP2n1aYXXrBhGZjStoEoTT4qnQvIF/llcFKmBjFu/dKqaHfcSzeAl4LPqBOIHSwUUO5+Mbhyj+gnWLTDfeZ+l6wHFdInH39sHwbI01R1g2ky6vNih2tlgYQVH+aeVIJ7xj1heyEeiqdbzi/+7Gf2d/j2Mt1fCeKKEUYECzpCrByIMGY8mE4m1h6Qz3Jw//icdo317/ixY7bOcB3/9L3v2ZA+L/3iFzZkSaEoU25fVITNETQWKr+djujvt35DpvWUtF7wvbVGeDEFyTJ9noiVuQerA2WNCCs3aDno7OlMCy0fvPI++/Mx0PJuuePcqA9mkCQUxM9Mh/6C6ThfMANBNYkB4yc//rGNV4RfYaXVVO59m18zWHDeSh27koO2WSpEQDko03IDHO8jgqkXzm+s3HE5L/cKcf3666/b+8z9LlUPKiVC0LCCl3OXvYb8+y5fix2uFUsjK4JNIVes53wXXy2sSAiVaZezaa8///nP7RSge6Ceqg1OmnxNJcKwvuIHzHQ0syTks9J1UF9IfIfxxcYRfPddG5+QfoWN/NkeC/cXHvhYMMT3nFVcub1QETYP0CBLiS8Hn+MjROwansSV+YGyxpdmKhHGZ0xRWcFlBlbXQfLKQIbf1VRPnByD7zNgEM2beGJHTQdJyJLpJAZq4mS5QaAcnIspbp7IlWmQb6uV6oOD+02dcPWhEN5zlshqBj4GagTU2TNnSt73atKlixdt/eLc5fLvrHx2OvIOEGEukj0LmqqB72IhIsZZqTKsJrG6tPBhrBSIKRJlXEmEcZ8QYkS+f/rZZ21/ZNtthWM7+C19F8kJeYIuf2we8n78L/8if/d3fyd/9Zd/Kd/5zndsYHDcYSrlRVkYVITdBtCY2HOQhoJvAx27MvfQSYZMB+gikU8Fg2nhoEpHyb1CiLFSrhrB437D9NNs0lRwHr7nLGHK1DCQVWMVdVDG5QZLV1fKibRSzLZecM5qz8V3p5q+WwxwDQgL63Nn7ls1946y4jfF5Vdtquqekg+T+O5U7Y88s2L6/vvus3s+sgKT33Cuan7rEvB9rs0uChkctCsosfwxnfqd//E/rOXv0KFDOk15G6EibJ6YqtFi4WDFC9YRTMfaQOYeBl0sXNUNuflBsuBJknvqOj1SNQMgnaU9b/5JeSaJ31cDeSORr2rydrfj7osb0GYD5Y3fHgNptdSiXtQi74sJW84II1PPq732+Wp/JnNTBoN2sGCAnQUIpMrWXQSSZgEA5ypsx5Uo7Ft4mACmndkqi62+8ENlWpXwFrg04CLDg4KysKgImwdoPOUaEA2HRsM0wvHjx+UHP/iB3dao0OKiKNOFehUI5rY0uRsH54WG9m431sZCo8wplUI7LCj07abtVSva8FFlf1qi2X/961+3u2kgxOxDXhVWsWKcKGPlLVOe/J59NX/0z/8sf/PXf219U62vsrKgqAibI6jwNAACKBIFe9369bZRlHsy5jOcS/E5ePONN+wquIWYmqQrq+apa66h7KrtvGYKZevEbjXXi1guFaTRPXlWI3Q4F52qncKcw8RiAVZ0MkVaTb6U6UP95N6XgjJn4HMWiamg/tE3INxK3c9aJfzUSOS7XN4XG7gTVFvH562cTV9uFwsYqs0b9YmwROzcsO+ee+S3fuu35Ctf/ao8+9nP2uDOhMUg7+xNSR9CXzIVnNsloM/jgZ+VuFjF2MGFhWPTsdgqtUVF2BxBA6GTYz+3Hebphr3d3I76pRqPExxMRbKEmg2+aSjO0Xa+cJ3UQj/BV9txzQY6MgYkrrVSGdvPTOJ+sozc5Y1X7huBNrE6TZVnPqeTZe+5zq4uG1izYy6SqWfEImMbnHJBJZXZQ7m6VAz1gjAzTHdXA9/HKbvN1I2S97RGiTrXZRJ1405YBETZY+nB4jQVfJf+l/ZHrLBS5VOr5ALnIpw453TA+sVewYQs+uJv/IbdKJ/QRezBygpKjkuUfXdcxhP6MF4r9WNcv3tYZFx5++235e233rKrPe3q7gq/VeYOTzQa1ZKfJi+//LL8+Ec/koOHDtmnnVJPuwgZzMt79u2Tp59+2q58/Ocf/lDee+89OXfunO04SnXeriHhI4B/AInti+ikS31/KjgWx/w//uN/lL/8i7+wnW+5ToEnLAaBb/zhH8oDDzww5V50WJHYr+3bf/M3drUfMYpK5ZPzI3jcJrh0KgSVLAdlhxXwe9/9rvzg+9+/sSKRYxdDngkz8Y1vfMNuAs1G3tWCyOVJ8H/84z/KwMBAWasFHRwrIL/4pS/J737967ZcEDdcF3kjWCLTyNf6+mzeS+WT7zIok7+NmzZZnw/rXzYHHR9HJA8RU//cZtoIyEr1h1VV3/72t63vyOUrV2zU+OLvu7rESl72N/zjP/kTu7x+PmHwII84GOPbQl0uLm/ySeKzNaa8/+2//bd2v0AGt0rwAHTgwAH5//6n/2RXkpWrD5QBjs/Pf+EL8tXf+R1rpSgOrIzjMw7Q1F9iS/F5qXoB5BUB5jbtbjID7FzBudgIGsu8G9CnA9eOpYfyJyYVK3Vp26Wujfe5LkLvYM25zzyI1hr6HNrfq6+8IkePHi1ZHxzcT/od+gnbD86hJRBfsEZz7ffef78t45kKXvoT97DI1CFxJ4lTxozJSfN6rbfX1kX6KAQ/IVaqsXByH1lRSn1jh5bf//3ft4Gky40NyuyodP993/rWt/48/7dSJQzeJ44ft0vKKw26NHoqOeKD/croiO2qFdPZ05HxneKBjn/TUXJcBhye8BBziLKZNBB3fGIIffThh7YylOukyA+fM33Kah0sKpWg4bMHHb4FlAXXxvnKDd50RgSiRYRwTeXguxyLrZ7obCgLKD4ukAfKFV8KhM10YqyxDxvHxxePTq5cuQDXsH3HDiuIuRdugOY3bO7NknfKgvyUqw/cP/Z9RMBY51vT6S03/+a9uUjcQ7ZmqnTPHYgG7iODqqt3pcrbCQYsvPuMaOCJfD5B+JNHnt6Jf1RJXPIZ9YHNrRl8mR6sBHWOQY6YS5RBuTJz7ZM2vW3bNhvwt7ht8jkxqVhwc8bUj0rxx6gbBA6+5557bKiCLaa/KHU/a5ZMO0FIcx/LCc1ycO3UccqftkOoC/Jf6tp4nzInGCmij/pYa+hHz5sHQVYBcu/K1QfyzWfcq8fNgyB9MgK9ZPnUICFwKWcsbuwLOVX7Kwe/o27Rx/EQwa4O9MvLTN+B+OfhnnNxHu4lCxToyyh7KFfngE9Y1U2boiw4dqV+WZk5ldrZzGqGMiU0epvy/6ZyY05m4MI6YSu7aSB8pxg6C97HYoZ4Yo8wOhg6nJlAQ2YQmGrKjE/wIUJMOH+GOxXKl+0/es2TJANmxXIxn9GRcs9IrkPlfRoXHWSD6SD5d6n76eDpmA6PY9BBr813onOR6KAZ/OhYZzoAKJXhfperN7RhRA4pPMXuF7bOmIRgYaqw1P2sZeJBCFE6U+vMdKA1uOubC6jbPAjQBk0hly1n8oB45LW5qck+AJUqm1omdkFBXFMXagH1g/ZM237wwQfl+eefl9/+ylfky//qX8lnn3tOHnzoIdlixhZrTTXXSN/kxFgxlBP5sg8epg8kPh3GAWX+0d55nqCzoKPAmvLU009b50ump2gk5QZuhBOBPd947TVrpUAwzBT8lqZ6IqNhIkjYjPpOXjVDeVPudDoEbqwkwty9YcByg2pxp8oTKtMblG25e8nxCVmABRULDtunlOsglcUB95uBrlTdoY5gMWXQZGNwvlOubgDT6mxtNjA4mH/nDsFcM+0LC81cgJUI0YHFs5JfGPeKMr5u+jWsZneC4KCOIUBxcXj4kUfk67/3e/JHf/In1p3kvvvvtxYzVlVWqnds9g5Xr161LiDK/KMibB6hI8Acjo8OfgmYkSs9qdiOIx63VrC33nrLbkHhprymC4JvKmsN5yM/nI+plDtVJDAoMH2KPxudTyURRhnQUeFI35a3HhR/t8kMtnbjZ/O9ct2dK3em/fDpQFTzd6UOUrm94d5RP0rdQ9oSFk8sTiTXtkrBZwh0G8X92DFbL7GY3o5Qj6nniE8eErn2cnWY72L95YGjcIqslpAXBBiJ8nbtrBTsFoCFn4VPPAzNtC+9XXD3gr4dMUY9w18Vl4lnnn3WrrDs6e7O3YdydS9fXvT3WMWU+UdF2DzDIM5mrZiTt2zZYs3G5ToO3gc22z34ySd2U1amKGks5TqactBB8VReqZNyjZVIyzyRIxIWcydVCq6PlUBsfEtZ8vRHebiyLobPGHDw8+DJspTlg3LFsomls9zmz/zGlq85HhaPd95+2w62dH5ummQ2cF0ch9fZHkupDlfmpeBeMzi2mzqDQEfIV2p3PAhcvnxZDh86JJ+Ydj7Q3z9j94NiyCfHr1W9YOBn4QbWdah0Xbg3YFWnniMsyct0qZR/8kL74wGJVY/2nGXyg9jlODzMHjx40Pr20sfx3mzhnK4+TKec+Q0ilTLCOkffPtN7xfVhqWeqlUUQu3fvtv1WpWlJ4Ez4hrEAQJl/VIQtAHTOOPUStoIVUXQkmI1LQcMyLdI6Ctvd/3/5S9tYp9txMCWCMy7nKtfArUgwjRVhwpQZnVStBoLbBToaLH0vvfSSfRqeamk7ZcXWRixWoPxKwbQTPl5Yy1iRWK7Do3xZFcv58fNjE2F2SMBKMJNOtxCuC3HJsWoxqCizg3tNW6PO4JSO1ajclBzfdW2P+vDTF16Q/e+/Pyv3g0KoE7Wa/nbXxTQg/Rj/LgefIUpYSOFcHMqJ1kpUyj95wQrElCTig/6y3Dn4jHY2Yvq39z/4wJYzfRzHng0ck7zRV063LfN9LKBvvvmmvPLrX9upUoQhx5tpn0C54z9GqAweDlk1Odv+RZk7dHXkDKh2daT1VzCNgAEcJ2kHjYSnEwZ3GgtPwG63fT4r1bHRiHiSxJyO9azBdDw8AVYL1q0+puBMI+c4dF7lcB0A32s256Cz5ftcp8sb3yG/CEJWXfbXeHUkndORKldHYl1klRpCiOneYvgOx2M5+ydGyL726qs2zwwK5K3U/QN3D7t7euTJp56yvhel8s3v+S7WC3xOKJNyqwt5z5adKVumQ0jDJjnrJuXMq6PwGPyOa6Hc6fDJPz5tTG+yaS9hQtKmrHAEJz7RdKDj19WR01wdadr1tu3bS66OLIQ8swJ3Mi8kytUL4LhRI6a5t4gFBAL3FPgOv4fCvLn8kDgXv0HA0U9RJ6gbrNIkn7Rl+p7ZctnUOyzJbmFLubIC6ivnpYzoT7gPfL+wHFzd5lh8H8sZYUIQpbRV8o/Qwtpc+Dv+5lj0i1w3VmbaOu8Xfq8Qyov2N2ruMW2WciZ4K993bc/93h2D9wvzSPuj7dJ3I6KwXjKVTHm4FcnVwIMTljnCrrDHIyKMjdgZW6iD3E+XB14rlTOQT/JIXabOHTxwwOaJ90r9lmty4xQLxqYKS6TMjEptTkXYDJitCHMwUCKoEAdDZuAeMp0B01mu0Tlc46Ph02ixmrUyBWY6pUqDUCFMadKxI2zopMpVCncsBmUEBcFJ2RaEc9Kw6ejoILGWcf0sHMC0P2jyT/74fXF+XAc2FyKM72JdYsk2goDrYrAbJ5lroCMjBhhP4kdNJ/n666/bHQkoczomyq8ULs843GO1fOKJJ25YEotx94DBg1hhCKNS99HB+xybPCBeidFFPilfypDyJe+F1zGKWDNlzrVwDgYotiAhjAfT1MSf42/K1QZrNQPBdFARNn0RRj1mxXMlEebaGVPPI9zX/HFL5Zn3ODZ1n/rab+41D0/8m/aLOKNu0Ab5eyxfvxEDRD2nPVKXGMgRBNQLtkAjEY6Fekx5VCsQKkG9dUKMe1KqXbhrdKKFfEfMuQv/beu2uSaEEC4QXAP3gNV6iBMsxvuNOKFN7dm924q4UvfFOpibsuOBhDaDyOL8xeXMv/k9bZVzUocoY/JCnlyZ0s/yHol/0/7oP7lu8kj7O336tM0jMxQIqBOmzPnejh07bLsoPncpiD/oBBgPiIS7QdjxwMz5CvsC6id1gVfy515dPqlbPNBRF7jfiFe7Wbd5n3pVKj+2/zTtAvGFCMNPWak9lUSYBmudAdUEa6WR89S279575Qtf+II8/vjj+U9uhYaEqPv+P/2T3emewa9cJ01Dssk0nOe/+EW7PJlGU02nyuD9oemM//d//+9l0PxNwMZKuEbLEyyWIASfjVXGQGY+o/HTQSAk6DQpBxp0KXif8phOsFY6IIK1EhCSjof8lOp8OTblTx7xvUHo0QG6TpkBgjzyNMjARnnbaaH89ZXD5Znp4meeecbmmwGs3G84D53fj0y9YDsQwl9wjFJ5drgyZtsVRBtl60QU4o+gndxbGqgduEw5MCBQNoh2Omb3BM/5+e1jpp59lsCYRnhMBw3WOv1grUQz/9rv/q59wCrXBskH4hnh/+KLL8q777xj29RU9QL4Dom7wAMbAoT6zYMb9xrhg4+hs6pSL4ZNooyou3xGX0HdwTrzP/3xH1vhjE/qbMFC9Zopf/otxCVW/XJwPdQlypO8I+DJw41rMHmkjWOZIv+II4SH7VPMb3lYIsbY//N/+V9u7KdYDN+hjbMv4ltvvmmtU6XqRiGunpAHEt8lf4hqpvLoR9x9pX3R57lypu+LmvZHX8LdwlqJmGET7v/Hv/t3VtSUE+aFsDDor//qr6xgIv8uH5SXu/9YtjtNm6Ot0fa4fs7Fd4Fr536TR+49YhZxSTlST119KgUrRulnvmDq8mdMH7dz5878J0otqTRGqyVsBtTKEgb8FrHGkwwNnCepcsekYdKgaHB8h1eOS2dW6vuF8DnWLEzUnIvfcrzigbYQzsUehPYJ3OTrmhEZDNYMUFgjEF9YyxLmO5UaOp9RHnNhCXNYC5LJI9YDOjae0nkaJCG+yDudPB2W6+DKwfn5HKHIKtZHHn30hlN+OTgmHSMdIeXVa8qGcqlUxrxP2ZAnxJR9ys0/2TIYMVVyFfFoyppEPB/KnE6WuhI13yfqPgMBxyDPDCIIj+nsHABqCZuBJYzpyG3brFtAuQGXvHEc6jtizE7bm/uGdbnc8fkNiXrIeRgoyRtWE+rwjYeKfL1wdYOHAAQCYoFyIiK6OwbCj4cg7tt03BjKYa1GRogw3Uneyl0LFF4L38VSxUMEbQTBT/vkntK3UOcpJyx/tB/7O3Md9ab8EAgsdCjVd3B+7jcPD/RJ9AG0Ce5Vufrh3ncihocclz9nXbxCX0L+SOZv2+eZvHPt3EfaLQKMfCKGCQP0kOkzEHKV+gsH9+sXP/+5vYeuDbs+gf6aMuA8VgCacuH8WAWp+1ghsZwxBcvfvMdnrhzdw2u56wdEOn3Go489ZuOP8aCt1J5KdaHyyK3MOXQcNAKiZDPg0whoNDSeUtBIGUyY3sASQONjAJ0KlDhPwwwaTFXRsZU7B5AHey4zuNBB0fHTWXJepiAZBOgs6bgqHWeucR0M+aBDo8OkY2KqALHM1AydKZ9zLdU+HVNemzZvtuXFU+1UAzjHREwz5cN9XLZ0qR34GHjo6MpB/qkD5A1rAo2VzpOOngGK8iYhKl2Z0zHzPY7PdDHXxL/JNxZPBmtl7mHgZbCcCuoO/ors6rBr9267nQ33nd9Xgjrl7jOv1CU7EJt6wMOFqxu0S9onAoLj2nphEnWK35k3bXtHXCCeagHiG2sWFlvOVc21UM95xYJLXaYfQTjY+m3qOnWeawDbHvJ1GysxfRAWN/d5KVybZTqQBxF+S76m6ueseMufj/xhgWO2wPZ35M+ki6b9IYCwgPHgc6P9mXvr2h+iiak/BCT5nQryRr+EaHT3juTuuy0D7qM5B6Katn3O5AUDANOgrKQl8TervU+ZPg9/MqZXuWZX3uXg/PRZPBxTP1WALQwqwm4TGOgffvhhG0UdS4MdvMt0HjQsGhCiA9P7GdP4qoEnSKapVq1adePprVIH5eB8NGg6Brs03STXwCs18vnE5ZH8FaepOiMHZUG5832E6pNPPmmnP/g3nWM1IHSxEH3u85+395IOfSrBW0ypa5mqzMkf95MOuBpRrswfbqAnUPMXv/jFG1OjDNrV1gt3jJnUDUQM57HW0woiZjrQR2HlJzI8oSGmcy3uGlx/4hLvkYrbmp1yNaIGSzcPKOXguOSLVeeUMwLRtelal3M5sHBiJatG7HIvEJYILNpupeMW5gdRVipVKsNiOB95REgTT2ylEWGUnTL/TD0yKfMCTzwufhhTdlN1GTRKOiScVvFj4SltqqcvnhQxORPMjwGBTqXaDopGXSrdTpTKn0tTgUWDjoltRrBWfO5zn5Ot+X0BpwNPxfzmnnvvtT4WWMV42mSQmu5gUC6Vwr1Px44IY0qT61FuHxjkEOaff/55ecg8cC1dssTWO6a0qr1XxXWhOJWC97HG1lKEMdBjwaeerzYPdcA1zLZ+l4L3KScsZdTrcvA98oXrwM5du6zP3t69e+3DJ21vLtsf0CfjGoDFiunsqaCdssgGF4Rq7n+pvJRKU+HKAf8y+rr7H3jABpym7JT5R0XYDLFNOd+gqdDFaSbQWfAUxyqVctHt3fH5jMZ0+tQpuwIGEzUdbKVzI7owPdPw8AHoyU+Z0QFMpwOtBpdPEse2lrdpHt/9tvBYtcQdn0TZ4PjMk/0jjzwiTz/zjHUGruRQWQ7KFLH76KOPyrOf/aw9ZltrqxVoheeci+vBf4QncaZNqpkqKwfHKpU/9779rMTnC8EtecpT+PdMKTxucZoJDHL4Yz3xxBPWyrrHCAQGQlYMsjijsF7M9BzFuGNRF5jKZKqac9QC+isCgm4xDytEZuf63DXUGvo6/CMRklPBQw8xwz7/+c/bBTX4oLoVrOTNPXDVqozBlTP5xC+1GhHGQzS+XliwrIAz+ZqrvLn7QsJqhlBlepxN4wkaTpkpC4OKsFlgK3VRBXdpJk2IxsEqREQYDYNODQsKx4PixgQE4mM6kpVKPCnSCUwFU59PPfWUXUWHQOBYWNFmM2gXUphP8o+5nSdYfJmmA/mho7J5yx+vlp2Tyx/n6DKDCKLpX3/jG3aFIY7cCLPZsMTcS8TuH//pn9rVR1hBgGkAzsv11eJ6uA6ORTmPmUGKeoDv2GzuZ+E9vOXf5pXpVfc0vZAU5tGlWuWp1LFdms05GGxp5wiw3//X/1p+7/d/X+4xD14IGtdWKNvZngcKr4E6jrWcEAZu+mu20D5oJ7SbL//mb1qfIvLOddTqPthyMImHCxzQ8X2rBpe3zxixyype3APwEyNfXD99Si3KGFw5u35uKO+fNxVMSbNQAj82RCL3yPV3tc4bx7THNvcGd5RnTN//O1/7mnWdQIBRL5WFQVdHzgAcvlllyOpILDyIJWcKdomOw4mqSqsjC+F3HMsNcjiu0nDcMd13Cv+NvwfTGXx/hXn6oyOcaik+HRQWHqYTsP7wG/5NY+XJjFU+TiDwXqWEOLL5NXmgodvB2ZwDh1U6Fp70CaOxyYhKnrp27Nxpl1pTNlNBzB7OwTQO+aOj4Phcr81j/vzktThf5RK/555Rflgl6JCwDD700EPWX457xYo6nppdGc8U7iVWMZyYOSbWAsSe24OS8kWY4pxrRWYV5U0qLHOunbKkrKlr6zZssD4e7E9KuZGHasBpm2ltHKaxolHWpMK6BuSZQMHcQ6aiFmp1JCEIcOguDOlSnE/uIU/8WJerXR3J9BBT/EwVFR63MHFsyt06gZv67OpLtXAM8sKKP6aByBt1o8O80nY5L9dpxUK+nldTN2y9MHWbekH9wLrWbNp4V0+PrDUPXgSWJbnI8uRjNvB76pfrSxjMEZOUD6KJhw3yMq16XZB/4Hjcw1Wm/yQmG+VN/qeCvHGNtD9CMOC31mmOg68nf7sQPdxzypnzziSfSFkc6Gl/tAn6j72m/WEJ575WgjxSdvQHWN1J/MbWAVOu+JPavNHOOfc08kdfbMWc+Q3H44EQi+B9ps0yFY74WmPKlLZcbR+hzJxKD/QaJ2wGvP322/KrX/7SDgR0NKUqMZ000wz4FTH9wIBVLZjcmWb83ve+d2OD6UrwOZ0gli3iWmHpqhasJqy0IrIyK21OG4HpYlwBr3SqpELoQFyiodOdIwipbGzdg7Cj4SPC6Pjwd0Mk8O+pxAHn4rwst2aVo1uNySpHhC9TKohTNxjS6Tjn40p5pVMGXtnGCQGGWKFjRyTT2ddicCoF10Nd4ToIREndYTUTK7AIR8HnhWVd6TrctZAYzBGTdODsE0fQWgYArm06T7j4sRDjjDrAEnf7u+JyMPkhj4QJYMHCV7/6VTu9PZ9gaSAo7auvvCLvv/++rW+ful/k0yQGOMqBJ35XHpWg3RH64h//4R+sGEPElIIyQDw/8eST8vzzz9t6zWA/U6gXCF/qBecnOjwCE2smD0XUA66HB7viOuGwZZAvB3JNqATaGc7ziBZWv2EJ4oGIxSO1hgEfKxWR44lHiHuEW+1I3uw1lMi/q8/gPiH/xMxDPNitd0z5IsKYIeA+zjT/lDHWQPoU+lcb1sGUMysayX81+XR5dX9Tp3iQpf3R31G+5JP+jj55Ktz5mL6kbyNvrOhmReZ5kz/yzEPaDbul+X5x3hzkx/Vf1BX6WPpiYijSJyDCppM3pXbQF5VDRdgMoLOhMSMEaEBFQ4CFQqURYClgcJ9ObB6EBZ0vYQl4omTFTSU4F4MRT2M8lU/HOoGA42mL89FputhUDMqsRqITtdNnppNyuMHfrhgyT4EkGrU7P0/4NH4GATpSOirKgt+QT9dRVIKOhnO6c5MPBmASf7PMnSj9xBvCYmafnk1yUzrcFwdWCgZJ8oHlgfuxxHREvLKCiqdtl7ep8jUbyBPlzTXxlMvUEAM/10AHTPm7OHHW2meSo7DMWUpPfWIwQhDhP2gtmuYecC+4Vr5rhVSVkCdiFTEYUH7lSoG6xpM/wUMZ3GcjPmYCZUMeqZ+UXaV8sl8j9ZB8ViNIKW/qFw8llabOOTb1EwHKQwVlMJ2yLoZj0eZtvTDtnYcMds9gpSsroKnn+HMxIBfXbXB1g46e+0IbpG6QaIMkV8ddPa81XAP3hn6EfJJ3HjiI/M5DBpZWZ9kpbpvUaUA4uvzTl7SbxMMSfQt9GnmnrGeaf8rYtT/6D1Ym0vaIu2en8KfIpwv5ETHtjfyQP/JKwqJEX0c5cx/4XqUHzUIou8K+gTLkQZj7TqgM28+ZvLmHz4p1wNRz8kGZ0b9hWePvFtPvUZbTzZtSG1SE1Rg6axoCjYdUDgZ0KjsNeLodB42MBknHUekcjtmcCzgf10UjpxNlOoa/mQ6hc8Da5GDgwxeN89npIPNqB4B8J+Ty4FItGrzrQF0ir+SRDotyQqiSR77HdGNhiZFH8sHTNflkUKJj4m/yOpsBdKZwT6lDJMqZThcBQHBcey3563EUljnXUmc6WwYCBi3+zeDEtcyU6dQ3V9dmKz5mAnkjj9x/6kElpptPd2xbnwrKvhwMerWuP4V5oF5Qv92DB/8urtvg6gZ5IU+0Q1s3zGst22A1FOaffCOYeaWec89KtU27u4WBfLr8kxDOroz5rJaQR+oPZVr4gFcpn5QheSVP1CnX3zlhU6tynm7eoLgOUHaF4nsuylCpHhVhiqIoiqIoC0AlETb/JgBFURRFURRFRZiiKIqiKMpCoCJMURRFURRlAVARpiiKoiiKsgCoCFMURVEURZkDpgp7pCJMURRFURRlAVARpiiKoiiKMgdMFUdQRZiiKIqiKMocoCJMURRFURRlAVARpiiKoiiKMs8gwNQxX1EURVEUZZ6pZi9RFWGKoiiKoig1BAuYijBFURRFUZR5xu/35/+qjIowRVEURVGUGoEFrBorGKgIUxRFURRFqQE44wcCgfy/pkZFmKIoiqIoyizBD2w6AkxE5P8PVnEAYb+KJ68AAAAASUVORK5CYII=;" vertex="1" parent="1">
          <mxGeometry x="250" y="178.28" width="279" height="115.44" as="geometry" />
        </mxCell>
      </root>
    </mxGraphModel>
  </diagram>
</mxfile>
